<svg xmlns="http://www.w3.org/2000/svg" viewBox="0 0 187.36 265.86"><defs><style>.cls-1{fill:#faaf40;}.cls-2{fill:#fff;}.cls-3{opacity:0.8;}</style></defs><title>logo</title><g id="Layer_2" data-name="Layer 2"><g id="Objects"><path class="cls-1" d="M59.06,50.37a290.27,290.27,0,0,0,33.12,1.51c3.23,0,6.46,0,9.69,0,5,0,10-.06,15,0h.75c1.27,0,2.77,0,4.31,0s3.29-.05,4.87-.06c-3.09.61-6.84,1.28-10.2,1.88-6.76,1.21-13.74,2.45-18.76,3.64l-.95.22c-9.76,2.3-24.49,5.77-29.25,16.32a14.31,14.31,0,0,0,.37,12.72,15.56,15.56,0,0,0,11,8.08,30,30,0,0,0,5.29.56,48,48,0,0,0,9.19-.87c15.38-3,15.51,1,15.52,1.38,0,2.61-5,7.14-7.21,9.07l-1.14,1c-.57.54-1.23,1.13-2,1.78-4.4,3.92-10.43,9.3-9.7,15.19a1.41,1.41,0,0,0,1.4,1.24h0a1.41,1.41,0,0,0,1.37-1.32c.17-2.42,2.53-4.54,4.73-6.33s4.35-3.28,6.54-4.81c.91-.64,1.83-1.28,2.73-1.93l.07,0c4-2.87,10.72-7.67,11.63-13.43a8.57,8.57,0,0,0-1.75-6.6c-4.25-5.76-11.9-6.24-18.74-6.24h-.55c-1.21,0-2.43,0-3.65.06s-2.53.06-3.79.06a42.08,42.08,0,0,1-5.53-.3C80.37,82.67,79.28,81,80,79.7c2.22-3.78,13.42-7.13,33.61-9.75,1.1-.14,2-.25,2.51-.34l3.73-.56A157.36,157.36,0,0,0,141.5,64.8c12.6-3.74,15-10.08,14.74-14.9,0,0,0-.06,0-.1h0l0-.15c0-.09,0-.18,0-.28a.07.07,0,0,0,0,0h0c-.57-5-4.06-9.11-9.56-11.24C138.67,35,129.31,35,121.06,35h-2.16c-7.06,0-14.24.11-21.18.26-6.07.13-12.35.27-18.52.27S67.62,35.32,62.62,35a104.23,104.23,0,0,1-13-1.4c-3.46-.63-7.75-1.43-10.49-3.74-2.47-2.09.1-6.7,1.8-8.84,5.16-6.49,14.18-9.19,22.33-11A133.92,133.92,0,0,1,89,7.38c6.49-.15,12.81,0,18.82.48H108a1.41,1.41,0,0,0,.28-2.8A130.73,130.73,0,0,0,72.72,0C69.12,0,65.52.17,62,.49,48.61,1.74,31.39,6.55,25.62,22.29c-2,5.34-1.68,10.1.83,14.17C32,45.47,47.24,49,59.06,50.37Zm0,0"/><path class="cls-2" d="M44.48,128.62c8.94,18.91,73.77,28.26,98.3,0,0,0-2.91,59.44-49.15,59.44C93.63,188.05,44.48,188.88,44.48,128.62Z"/><path class="cls-2" d="M125.52,105.87c5.89,3.08,9.43,7,9.43,11.35,0,9.86-18.51,17.85-41.35,17.85s-41.35-8-41.35-17.85c0-4.31,3.54-8.26,9.43-11.35-10.56,3.77-17.26,9.38-17.26,15.64,0,11.36,22,20.57,49.17,20.57s49.17-9.21,49.17-20.57C142.78,115.24,136.08,109.64,125.52,105.87Z"/><path class="cls-2" d="M124.07,175.54l-1.12-7.4c12.75-1.94,21.6-6.22,25.6-12.38a14.52,14.52,0,0,0,2.21-10.67c-.41-1.48-1.16-3.32-2.41-3.67-2.39-.67-7.08,2.36-9.5,4.63l-5.13-5.44c.92-.87,9.23-8.47,16.65-6.39,2.55.71,5.94,2.84,7.61,8.9a22,22,0,0,1-3.15,16.73C149.55,168,139.2,173.24,124.07,175.54Z"/><path class="cls-1" d="M124.93,109.45c2,1.68,3.07,3.54,3.07,5.5,0,7.33-15.28,13.28-34.14,13.28s-34.14-5.94-34.14-13.28c0-2,1.1-3.82,3.07-5.5-3.91,2.29-6.19,5-6.19,8,0,8,16.68,14.49,37.25,14.49s37.25-6.49,37.25-14.49C131.11,114.48,128.83,111.74,124.93,109.45Z"/><path class="cls-1" d="M11.67,235.49a11.33,11.33,0,0,1-8.24-3.41,11.44,11.44,0,0,1,0-16.34,11.33,11.33,0,0,1,8.24-3.41,11.83,11.83,0,0,1,6,1.67,9.4,9.4,0,0,1,3.54,3.46v-4.59h2V235h-2v-4.65a10.43,10.43,0,0,1-3.66,3.56A11.47,11.47,0,0,1,11.67,235.49Zm0-21.31a9.28,9.28,0,0,0-6.81,2.93A9.51,9.51,0,0,0,2,224a9.35,9.35,0,0,0,2.88,6.81,9.38,9.38,0,0,0,6.83,2.88,9.14,9.14,0,0,0,6.76-2.88,9.72,9.72,0,0,0,0-13.69A9.16,9.16,0,0,0,11.72,214.17Z"/><path class="cls-1" d="M11.67,235.49a11.33,11.33,0,0,1-8.24-3.41,11.44,11.44,0,0,1,0-16.34,11.33,11.33,0,0,1,8.24-3.41,11.83,11.83,0,0,1,6,1.67,9.4,9.4,0,0,1,3.54,3.46v-4.59h2V235h-2v-4.65a10.43,10.43,0,0,1-3.66,3.56A11.47,11.47,0,0,1,11.67,235.49Zm0-21.31a9.28,9.28,0,0,0-6.81,2.93A9.51,9.51,0,0,0,2,224a9.35,9.35,0,0,0,2.88,6.81,9.38,9.38,0,0,0,6.83,2.88,9.14,9.14,0,0,0,6.76-2.88,9.72,9.72,0,0,0,0-13.69A9.16,9.16,0,0,0,11.72,214.17Z"/><path class="cls-1" d="M29.13,235V212.91h2V235Zm1-26.83a1.55,1.55,0,1,1,0-3.09,1.55,1.55,0,1,1,0,3.09Z"/><path class="cls-1" d="M29.13,235V212.91h2V235Zm1-26.83a1.55,1.55,0,1,1,0-3.09,1.55,1.55,0,1,1,0,3.09Z"/><path class="cls-1" d="M37.05,235v-22.1h2v2.59a7.39,7.39,0,0,1,2.31-2,8.29,8.29,0,0,1,4.21-1.09,7.4,7.4,0,0,1,4.47,1.59l.1.07v2.65l-.43-.43a6.26,6.26,0,0,0-4.48-2A6,6,0,0,0,41,216a5.87,5.87,0,0,0-1.87,4.29V235Z"/><path class="cls-1" d="M37.05,235v-22.1h2v2.59a7.39,7.39,0,0,1,2.31-2,8.29,8.29,0,0,1,4.21-1.09,7.4,7.4,0,0,1,4.47,1.59l.1.07v2.65l-.43-.43a6.26,6.26,0,0,0-4.48-2A6,6,0,0,0,41,216a5.87,5.87,0,0,0-1.87,4.29V235Z"/><path class="cls-1" d="M80.84,235.58a10.94,10.94,0,0,1-8.1-3.48,11.39,11.39,0,0,1-3.38-8.17,11.07,11.07,0,0,1,3.43-8.1,11.55,11.55,0,0,1,8.43-3.41,11.31,11.31,0,0,1,8.53,3.78l.07.07v3.37l-.46-.68a10.91,10.91,0,0,0-3.68-3.43,9.73,9.73,0,1,0,0,16.94A10.75,10.75,0,0,0,89.37,229l.46-.7v3.43l-.06.07a11.06,11.06,0,0,1-8.49,3.78Z"/><path class="cls-1" d="M80.84,235.58a10.94,10.94,0,0,1-8.1-3.48,11.39,11.39,0,0,1-3.38-8.17,11.07,11.07,0,0,1,3.43-8.1,11.55,11.55,0,0,1,8.43-3.41,11.31,11.31,0,0,1,8.53,3.78l.07.07v3.37l-.46-.68a10.91,10.91,0,0,0-3.68-3.43,9.73,9.73,0,1,0,0,16.94A10.75,10.75,0,0,0,89.37,229l.46-.7v3.43l-.06.07a11.06,11.06,0,0,1-8.49,3.78Z"/><path class="cls-1" d="M103.69,235.49a10.91,10.91,0,0,1-8.1-3.51,11.44,11.44,0,0,1-3.38-8.17,11,11,0,0,1,3.43-8.07,11.69,11.69,0,0,1,16.5,0,11.11,11.11,0,0,1,3.41,8.1,11.47,11.47,0,0,1-3.33,8.17,10.85,10.85,0,0,1-8.1,3.49Zm.24-21.31a9.28,9.28,0,0,0-6.81,2.93A9.51,9.51,0,0,0,94.24,224a9.83,9.83,0,0,0,9.71,9.69,9.14,9.14,0,0,0,6.76-2.88,9.72,9.72,0,0,0,0-13.69A9.16,9.16,0,0,0,103.93,214.17Z"/><path class="cls-1" d="M103.69,235.49a10.91,10.91,0,0,1-8.1-3.51,11.44,11.44,0,0,1-3.38-8.17,11,11,0,0,1,3.43-8.07,11.69,11.69,0,0,1,16.5,0,11.11,11.11,0,0,1,3.41,8.1,11.47,11.47,0,0,1-3.33,8.17,10.85,10.85,0,0,1-8.1,3.49Zm.24-21.31a9.28,9.28,0,0,0-6.81,2.93A9.51,9.51,0,0,0,94.24,224a9.83,9.83,0,0,0,9.71,9.69,9.14,9.14,0,0,0,6.76-2.88,9.72,9.72,0,0,0,0-13.69A9.16,9.16,0,0,0,103.93,214.17Z"/><path class="cls-1" d="M119.61,235V212.49a8,8,0,0,1,2.48-6,8.41,8.41,0,0,1,6-2.35h.25V206h-.25a6.35,6.35,0,0,0-6.42,6.52v12.37h6.72v1.84h-6.72V235Z"/><path class="cls-1" d="M119.61,235V212.49a8,8,0,0,1,2.48-6,8.41,8.41,0,0,1,6-2.35h.25V206h-.25a6.35,6.35,0,0,0-6.42,6.52v12.37h6.72v1.84h-6.72V235Z"/><path class="cls-1" d="M131.71,235V212.49a8,8,0,0,1,2.48-6,8.41,8.41,0,0,1,6-2.35h.25V206h-.25a6.35,6.35,0,0,0-6.42,6.52v12.37h6.72v1.84h-6.72V235Z"/><path class="cls-1" d="M131.71,235V212.49a8,8,0,0,1,2.48-6,8.41,8.41,0,0,1,6-2.35h.25V206h-.25a6.35,6.35,0,0,0-6.42,6.52v12.37h6.72v1.84h-6.72V235Z"/><path class="cls-1" d="M154.42,235.54A11.09,11.09,0,0,1,146.3,232a11.32,11.32,0,0,1-3.46-8.17,11,11,0,0,1,3.43-8.07,11.61,11.61,0,0,1,8.48-3.41,11.35,11.35,0,0,1,8.68,4l.16.18-15,14.85a9.36,9.36,0,0,0,5.62,2.27,9.9,9.9,0,0,0,5-1.29A11.15,11.15,0,0,0,162.9,229l.46-.68v3.36l-.06.07a11,11,0,0,1-8.44,3.83Zm-.07-21.31a9.85,9.85,0,0,0-9.47,9.49,9.61,9.61,0,0,0,2.31,6.35l13.58-13.49A9.82,9.82,0,0,0,154.35,214.22Z"/><path class="cls-1" d="M154.42,235.54A11.09,11.09,0,0,1,146.3,232a11.32,11.32,0,0,1-3.46-8.17,11,11,0,0,1,3.43-8.07,11.61,11.61,0,0,1,8.48-3.41,11.35,11.35,0,0,1,8.68,4l.16.18-15,14.85a9.36,9.36,0,0,0,5.62,2.27,9.9,9.9,0,0,0,5-1.29A11.15,11.15,0,0,0,162.9,229l.46-.68v3.36l-.06.07a11,11,0,0,1-8.44,3.83Zm-.07-21.31a9.85,9.85,0,0,0-9.47,9.49,9.61,9.61,0,0,0,2.31,6.35l13.58-13.49A9.82,9.82,0,0,0,154.35,214.22Z"/><path class="cls-1" d="M178.18,235.54a11.09,11.09,0,0,1-8.12-3.51,11.32,11.32,0,0,1-3.46-8.17,11,11,0,0,1,3.43-8.07,11.61,11.61,0,0,1,8.48-3.41,11.35,11.35,0,0,1,8.68,4l.16.18-15,14.85a9.36,9.36,0,0,0,5.62,2.27,9.9,9.9,0,0,0,5-1.29,11.15,11.15,0,0,0,3.69-3.45l.46-.68v3.36l-.06.07a11,11,0,0,1-8.44,3.83Zm-.07-21.31a9.85,9.85,0,0,0-9.47,9.49,9.61,9.61,0,0,0,2.31,6.35l13.58-13.49A9.82,9.82,0,0,0,178.11,214.22Z"/><path class="cls-1" d="M178.18,235.54a11.09,11.09,0,0,1-8.12-3.51,11.32,11.32,0,0,1-3.46-8.17,11,11,0,0,1,3.43-8.07,11.61,11.61,0,0,1,8.48-3.41,11.35,11.35,0,0,1,8.68,4l.16.18-15,14.85a9.36,9.36,0,0,0,5.62,2.27,9.9,9.9,0,0,0,5-1.29,11.15,11.15,0,0,0,3.69-3.45l.46-.68v3.36l-.06.07a11,11,0,0,1-8.44,3.83Zm-.07-21.31a9.85,9.85,0,0,0-9.47,9.49,9.61,9.61,0,0,0,2.31,6.35l13.58-13.49A9.82,9.82,0,0,0,178.11,214.22Z"/><g class="cls-3"><path class="cls-2" d="M47.18,259a2.8,2.8,0,0,1-1.09,2.35,4.74,4.74,0,0,1-3,.84,7.44,7.44,0,0,1-3.12-.52v-1.28a8.18,8.18,0,0,0,1.53.47,8.07,8.07,0,0,0,1.64.17,3.31,3.31,0,0,0,2-.5,1.65,1.65,0,0,0,.67-1.4,1.8,1.8,0,0,0-.24-1,2.22,2.22,0,0,0-.8-.7,11.1,11.1,0,0,0-1.7-.73,5.42,5.42,0,0,1-2.28-1.35,3,3,0,0,1-.68-2,2.54,2.54,0,0,1,1-2.1,4.12,4.12,0,0,1,2.63-.78,7.73,7.73,0,0,1,3.13.63l-.41,1.16a7.09,7.09,0,0,0-2.75-.59,2.66,2.66,0,0,0-1.65.45,1.49,1.49,0,0,0-.59,1.26,1.93,1.93,0,0,0,.22,1,2.05,2.05,0,0,0,.74.7,9.13,9.13,0,0,0,1.59.7,6.3,6.3,0,0,1,2.47,1.38A2.71,2.71,0,0,1,47.18,259Z"/><path class="cls-2" d="M56.71,257.73A4.72,4.72,0,0,1,55.66,261a3.71,3.71,0,0,1-2.91,1.18,3.86,3.86,0,0,1-2-.54,3.56,3.56,0,0,1-1.37-1.55,5.39,5.39,0,0,1-.48-2.36,4.71,4.71,0,0,1,1-3.26,3.7,3.7,0,0,1,2.91-1.17,3.62,3.62,0,0,1,2.86,1.2A4.7,4.7,0,0,1,56.71,257.73Zm-6.52,0a4.06,4.06,0,0,0,.66,2.5,2.6,2.6,0,0,0,3.86,0,4,4,0,0,0,.66-2.5,4,4,0,0,0-.66-2.48,2.32,2.32,0,0,0-1.95-.85,2.28,2.28,0,0,0-1.92.84A4,4,0,0,0,50.19,257.73Z"/><path class="cls-2" d="M64.44,262h-1.3V249.86h1.3Z"/><path class="cls-2" d="M67.08,251.13a.86.86,0,0,1,.22-.65.81.81,0,0,1,1.09,0,.85.85,0,0,1,.23.65.86.86,0,0,1-.23.65.76.76,0,0,1-.54.21.75.75,0,0,1-.55-.21A.88.88,0,0,1,67.08,251.13ZM68.49,262h-1.3v-8.56h1.3Z"/><path class="cls-2" d="M78.24,253.45v.82l-1.59.19a2.79,2.79,0,0,1,.56,1.71,2.53,2.53,0,0,1-.86,2,3.47,3.47,0,0,1-2.36.75,3.9,3.9,0,0,1-.72-.06,1.28,1.28,0,0,0-.83,1.1.56.56,0,0,0,.29.52,2.11,2.11,0,0,0,1,.17h1.52a3.39,3.39,0,0,1,2.14.59,2,2,0,0,1,.75,1.7A2.43,2.43,0,0,1,77,265.11a6.11,6.11,0,0,1-3.33.75,4.54,4.54,0,0,1-2.59-.62,2,2,0,0,1-.91-1.77,2,2,0,0,1,.5-1.35,2.55,2.55,0,0,1,1.41-.77,1.36,1.36,0,0,1-.55-.46,1.22,1.22,0,0,1-.22-.73,1.38,1.38,0,0,1,.25-.82,2.63,2.63,0,0,1,.79-.68,2.31,2.31,0,0,1-1.08-.93,2.73,2.73,0,0,1-.42-1.5,2.77,2.77,0,0,1,.84-2.17,3.44,3.44,0,0,1,2.39-.76,4.34,4.34,0,0,1,1.21.16Zm-6.83,10a1.16,1.16,0,0,0,.59,1.05,3.24,3.24,0,0,0,1.68.36,4.69,4.69,0,0,0,2.42-.49,1.49,1.49,0,0,0,.79-1.32,1,1,0,0,0-.43-1,3.34,3.34,0,0,0-1.62-.27H73.28a2,2,0,0,0-1.37.42A1.51,1.51,0,0,0,71.42,263.45Zm.7-7.26a1.74,1.74,0,0,0,.51,1.36A2,2,0,0,0,74,258a1.65,1.65,0,0,0,1.9-1.84A1.7,1.7,0,0,0,74,254.24a1.9,1.9,0,0,0-1.41.49A2,2,0,0,0,72.12,256.2Z"/><path class="cls-2" d="M85.86,262v-5.54a2.24,2.24,0,0,0-.48-1.56,1.94,1.94,0,0,0-1.49-.52,2.45,2.45,0,0,0-2,.73,3.72,3.72,0,0,0-.62,2.41V262H80V249.86h1.3v3.68a8.05,8.05,0,0,1-.06,1.1h.08a2.65,2.65,0,0,1,1.09-1,3.54,3.54,0,0,1,1.61-.36,3.31,3.31,0,0,1,2.36.75,3.14,3.14,0,0,1,.79,2.37V262Z"/><path class="cls-2" d="M92.59,261.1a4.2,4.2,0,0,0,.66-.05,4.44,4.44,0,0,0,.51-.11v1a2.37,2.37,0,0,1-.62.17,4.7,4.7,0,0,1-.74.07q-2.48,0-2.48-2.62v-5.09H88.69v-.62l1.23-.54.55-1.83h.75v2H93.7v1H91.21v5a1.73,1.73,0,0,0,.37,1.19A1.28,1.28,0,0,0,92.59,261.1Z"/><path class="cls-2" d="M95.28,261.19a1.16,1.16,0,0,1,.24-.79.86.86,0,0,1,.68-.27.92.92,0,0,1,.71.27,1.12,1.12,0,0,1,.25.79,1.1,1.1,0,0,1-.26.78,1,1,0,0,1-1.36,0A1.07,1.07,0,0,1,95.28,261.19Z"/><path class="cls-2" d="M102.42,265a2.62,2.62,0,0,1-1.16-.21v-1.13a4.23,4.23,0,0,0,1.16.16,1.46,1.46,0,0,0,1.18-.47A2,2,0,0,0,104,262V250.59h1.33v11.31a3.28,3.28,0,0,1-.75,2.3A2.78,2.78,0,0,1,102.42,265Z"/><path class="cls-2" d="M109.38,253.45V259a2.23,2.23,0,0,0,.48,1.56,1.94,1.94,0,0,0,1.49.52,2.44,2.44,0,0,0,2-.73,3.7,3.7,0,0,0,.62-2.4v-4.5h1.3V262h-1.07l-.19-1.15h-.07a2.58,2.58,0,0,1-1.11,1,3.72,3.72,0,0,1-1.61.34,3.27,3.27,0,0,1-2.34-.74,3.16,3.16,0,0,1-.78-2.37v-5.6Z"/><path class="cls-2" d="M123.5,259.68a2.15,2.15,0,0,1-.89,1.84,4.18,4.18,0,0,1-2.5.65,5.43,5.43,0,0,1-2.66-.54v-1.2a6.45,6.45,0,0,0,1.32.49,5.51,5.51,0,0,0,1.36.18,3.1,3.1,0,0,0,1.56-.32,1.12,1.12,0,0,0,.11-1.84,6.82,6.82,0,0,0-1.69-.84,9.15,9.15,0,0,1-1.7-.78,2.32,2.32,0,0,1-.75-.75,2,2,0,0,1-.25-1,1.92,1.92,0,0,1,.85-1.65,4,4,0,0,1,2.34-.61,6.84,6.84,0,0,1,2.7.56l-.46,1.05a6.2,6.2,0,0,0-2.34-.53,2.69,2.69,0,0,0-1.39.29.89.89,0,0,0-.47.8,1,1,0,0,0,.18.59,1.73,1.73,0,0,0,.57.46,12.75,12.75,0,0,0,1.5.63,5.61,5.61,0,0,1,2.06,1.12A2,2,0,0,1,123.5,259.68Z"/><path class="cls-2" d="M128.38,261.1a4.2,4.2,0,0,0,.66-.05,4.44,4.44,0,0,0,.51-.11v1a2.37,2.37,0,0,1-.62.17,4.7,4.7,0,0,1-.74.07q-2.48,0-2.48-2.62v-5.09h-1.23v-.62l1.23-.54.55-1.83H127v2h2.48v1H127v5a1.73,1.73,0,0,0,.37,1.19A1.28,1.28,0,0,0,128.38,261.1Z"/><path class="cls-2" d="M139.27,254.46H137.1V262h-1.3v-7.55h-1.53v-.59l1.53-.47v-.48q0-3.16,2.76-3.16a5.66,5.66,0,0,1,1.59.27l-.34,1a4.3,4.3,0,0,0-1.28-.24,1.25,1.25,0,0,0-1.09.49,2.72,2.72,0,0,0-.35,1.57v.55h2.18Z"/><path class="cls-2" d="M148.23,257.73a4.72,4.72,0,0,1-1.05,3.27,3.71,3.71,0,0,1-2.91,1.18,3.86,3.86,0,0,1-2-.54,3.56,3.56,0,0,1-1.37-1.55,5.39,5.39,0,0,1-.48-2.36,4.71,4.71,0,0,1,1-3.26,3.7,3.7,0,0,1,2.91-1.17,3.62,3.62,0,0,1,2.86,1.2A4.7,4.7,0,0,1,148.23,257.73Zm-6.52,0a4.06,4.06,0,0,0,.66,2.5,2.6,2.6,0,0,0,3.86,0,4,4,0,0,0,.66-2.5,4,4,0,0,0-.66-2.48,2.32,2.32,0,0,0-1.95-.85,2.28,2.28,0,0,0-1.92.84A4,4,0,0,0,141.7,257.73Z"/><path class="cls-2" d="M154.41,253.3a5.08,5.08,0,0,1,1,.09l-.18,1.2a4.42,4.42,0,0,0-.94-.12,2.28,2.28,0,0,0-1.78.84,3.08,3.08,0,0,0-.74,2.1V262h-1.3v-8.56h1.07l.15,1.59h.06a3.75,3.75,0,0,1,1.15-1.29A2.59,2.59,0,0,1,154.41,253.3Z"/><path class="cls-2" d="M159.83,253.45h1.39l1.88,4.88a18.62,18.62,0,0,1,.77,2.41h.06q.1-.4.43-1.36t2.12-5.93h1.39l-3.68,9.75a4.86,4.86,0,0,1-1.28,2.05,2.72,2.72,0,0,1-1.79.61,5.2,5.2,0,0,1-1.17-.13v-1a4.52,4.52,0,0,0,1,.09,2,2,0,0,0,1.91-1.5l.48-1.22Z"/><path class="cls-2" d="M176.64,257.73a4.72,4.72,0,0,1-1.05,3.27,3.71,3.71,0,0,1-2.91,1.18,3.86,3.86,0,0,1-2-.54,3.56,3.56,0,0,1-1.37-1.55,5.39,5.39,0,0,1-.48-2.36,4.71,4.71,0,0,1,1-3.26,3.7,3.7,0,0,1,2.91-1.17,3.62,3.62,0,0,1,2.86,1.2A4.7,4.7,0,0,1,176.64,257.73Zm-6.52,0a4.06,4.06,0,0,0,.66,2.5,2.6,2.6,0,0,0,3.86,0,4,4,0,0,0,.66-2.5,4,4,0,0,0-.66-2.48,2.32,2.32,0,0,0-1.95-.85,2.28,2.28,0,0,0-1.92.84A4,4,0,0,0,170.12,257.73Z"/><path class="cls-2" d="M180.13,253.45V259a2.23,2.23,0,0,0,.48,1.56,1.94,1.94,0,0,0,1.49.52,2.44,2.44,0,0,0,2-.73,3.7,3.7,0,0,0,.62-2.4v-4.5H186V262h-1.07l-.19-1.15h-.07a2.58,2.58,0,0,1-1.11,1,3.72,3.72,0,0,1-1.61.34,3.27,3.27,0,0,1-2.34-.74,3.16,3.16,0,0,1-.78-2.37v-5.6Z"/></g></g></g></svg>