<svg xmlns="http://www.w3.org/2000/svg" viewBox="0 0 624.4 188.05"><defs><style>.cls-1{fill:#faaf40;}.cls-2{fill:#fff;}.cls-3{opacity:0.8;}</style></defs><title>logo-inline</title><g id="Layer_2" data-name="Layer 2"><g id="Objects"><path class="cls-1" d="M34.72,50.37a290.27,290.27,0,0,0,33.12,1.51c3.23,0,6.46,0,9.69,0,5,0,10-.06,15,0h.75c1.27,0,2.77,0,4.31,0s3.29-.05,4.87-.06c-3.09.61-6.84,1.28-10.2,1.88-6.76,1.21-13.74,2.45-18.76,3.64l-.95.22c-9.76,2.3-24.49,5.77-29.25,16.32a14.31,14.31,0,0,0,.37,12.72,15.56,15.56,0,0,0,11,8.08,30,30,0,0,0,5.29.56,48,48,0,0,0,9.19-.87c15.38-3,15.51,1,15.52,1.38,0,2.61-5,7.14-7.21,9.07l-1.14,1c-.57.54-1.23,1.13-2,1.78-4.4,3.92-10.43,9.3-9.7,15.19a1.41,1.41,0,0,0,1.4,1.24h0a1.41,1.41,0,0,0,1.37-1.32c.17-2.42,2.53-4.54,4.73-6.33s4.35-3.28,6.54-4.81c.91-.64,1.83-1.28,2.73-1.93l.07,0c4-2.87,10.72-7.67,11.63-13.43a8.57,8.57,0,0,0-1.75-6.6c-4.25-5.76-11.9-6.24-18.74-6.24H72.2c-1.21,0-2.43,0-3.65.06s-2.53.06-3.79.06a42.08,42.08,0,0,1-5.53-.3C56,82.67,54.95,81,55.7,79.7c2.22-3.78,13.42-7.13,33.61-9.75,1.1-.14,2-.25,2.51-.34L95.55,69a157.36,157.36,0,0,0,21.62-4.25c12.6-3.74,15-10.08,14.74-14.9,0,0,0-.06,0-.1h0l0-.15c0-.09,0-.18,0-.28a.07.07,0,0,0,0,0h0c-.57-5-4.06-9.11-9.56-11.24C114.33,35,105,35,96.73,35H94.57c-7.06,0-14.24.11-21.18.26-6.07.13-12.35.27-18.52.27S43.28,35.32,38.28,35a104.23,104.23,0,0,1-13-1.4c-3.46-.63-7.75-1.43-10.49-3.74-2.47-2.09.1-6.7,1.8-8.84,5.16-6.49,14.18-9.19,22.33-11A133.92,133.92,0,0,1,64.68,7.38c6.49-.15,12.81,0,18.82.48h.13a1.41,1.41,0,0,0,.28-2.8A130.73,130.73,0,0,0,48.39,0c-3.61,0-7.2.17-10.69.49C24.27,1.74,7.05,6.55,1.29,22.29c-2,5.34-1.68,10.1.83,14.17,5.55,9,20.79,12.53,32.61,13.9Zm0,0"/><path class="cls-2" d="M20.15,128.62c8.94,18.91,73.77,28.26,98.3,0,0,0-2.91,59.44-49.15,59.44C69.29,188.05,20.15,188.88,20.15,128.62Z"/><path class="cls-2" d="M101.18,105.87c5.89,3.08,9.43,7,9.43,11.35,0,9.86-18.51,17.85-41.35,17.85s-41.35-8-41.35-17.85c0-4.31,3.54-8.26,9.43-11.35C26.8,109.64,20.1,115.24,20.1,121.5c0,11.36,22,20.57,49.17,20.57s49.17-9.21,49.17-20.57C118.44,115.24,111.74,109.64,101.18,105.87Z"/><path class="cls-2" d="M99.73,175.54l-1.12-7.4c12.75-1.94,21.6-6.22,25.6-12.38a14.52,14.52,0,0,0,2.21-10.67c-.41-1.48-1.16-3.32-2.41-3.67-2.39-.67-7.08,2.36-9.5,4.63l-5.13-5.44c.92-.87,9.23-8.47,16.65-6.39,2.55.71,5.94,2.84,7.61,8.9a22,22,0,0,1-3.15,16.73C125.21,168,114.86,173.24,99.73,175.54Z"/><path class="cls-1" d="M100.59,109.45c2,1.68,3.07,3.54,3.07,5.5,0,7.33-15.28,13.28-34.14,13.28s-34.14-5.94-34.14-13.28c0-2,1.1-3.82,3.07-5.5-3.91,2.29-6.19,5-6.19,8,0,8,16.68,14.49,37.25,14.49s37.25-6.49,37.25-14.49C106.78,114.48,104.5,111.74,100.59,109.45Z"/><path class="cls-1" d="M208.3,95.2a26.83,26.83,0,0,1-19.52-8.07,27.09,27.09,0,0,1,0-38.7,26.83,26.83,0,0,1,19.52-8.07,28,28,0,0,1,14.22,3.95,22.26,22.26,0,0,1,8.38,8.18V41.61h4.82V93.95H230.9v-11a24.7,24.7,0,0,1-8.66,8.44A27.16,27.16,0,0,1,208.3,95.2Zm.11-50.48a22,22,0,0,0-16.12,6.93,22.51,22.51,0,0,0-6.82,16.24,23.28,23.28,0,0,0,23,22.94,21.65,21.65,0,0,0,16-6.81,23,23,0,0,0-.06-32.42A21.69,21.69,0,0,0,208.41,44.72Z"/><path class="cls-1" d="M208.3,95.2a26.83,26.83,0,0,1-19.52-8.07,27.09,27.09,0,0,1,0-38.7,26.83,26.83,0,0,1,19.52-8.07,28,28,0,0,1,14.22,3.95,22.26,22.26,0,0,1,8.38,8.18V41.61h4.82V93.95H230.9v-11a24.7,24.7,0,0,1-8.66,8.44A27.16,27.16,0,0,1,208.3,95.2Zm.11-50.48a22,22,0,0,0-16.12,6.93,22.51,22.51,0,0,0-6.82,16.24,23.28,23.28,0,0,0,23,22.94,21.65,21.65,0,0,0,16-6.81,23,23,0,0,0-.06-32.42A21.69,21.69,0,0,0,208.41,44.72Z"/><path class="cls-1" d="M249.66,93.95V41.72h4.82V93.95Zm2.41-63.55c-2.51,0-3.89-1.3-3.89-3.66s1.38-3.66,3.89-3.66,3.89,1.3,3.89,3.66S254.58,30.4,252.07,30.4Z"/><path class="cls-1" d="M249.66,93.95V41.72h4.82V93.95Zm2.41-63.55c-2.51,0-3.89-1.3-3.89-3.66s1.38-3.66,3.89-3.66,3.89,1.3,3.89,3.66S254.58,30.4,252.07,30.4Z"/><path class="cls-1" d="M268.41,93.95V41.61h4.82v6.14a17.49,17.49,0,0,1,5.48-4.82,19.63,19.63,0,0,1,10-2.58,17.54,17.54,0,0,1,10.59,3.76l.24.18v6.27l-1-1c-3.2-3.2-6.77-4.83-10.61-4.83a14.19,14.19,0,0,0-10.21,4.38,13.91,13.91,0,0,0-4.43,10.15v34.7Z"/><path class="cls-1" d="M268.41,93.95V41.61h4.82v6.14a17.49,17.49,0,0,1,5.48-4.82,19.63,19.63,0,0,1,10-2.58,17.54,17.54,0,0,1,10.59,3.76l.24.18v6.27l-1-1c-3.2-3.2-6.77-4.83-10.61-4.83a14.19,14.19,0,0,0-10.21,4.38,13.91,13.91,0,0,0-4.43,10.15v34.7Z"/><path class="cls-1" d="M372.12,95.43a25.92,25.92,0,0,1-19.18-8.25,27,27,0,0,1-8-19.34,26.23,26.23,0,0,1,8.13-19.18,27.37,27.37,0,0,1,20-8.07,26.78,26.78,0,0,1,20.21,8.94l.16.17v8l-1.08-1.61a25.83,25.83,0,0,0-8.73-8.11,22,22,0,0,0-27,3.82,22.74,22.74,0,0,0,0,32.47,22,22,0,0,0,27,3.83,25.45,25.45,0,0,0,8.72-8.22l1.09-1.65v8.11l-.15.17a26.2,26.2,0,0,1-20.11,8.95Z"/><path class="cls-1" d="M372.12,95.43a25.92,25.92,0,0,1-19.18-8.25,27,27,0,0,1-8-19.34,26.23,26.23,0,0,1,8.13-19.18,27.37,27.37,0,0,1,20-8.07,26.78,26.78,0,0,1,20.21,8.94l.16.17v8l-1.08-1.61a25.83,25.83,0,0,0-8.73-8.11,22,22,0,0,0-27,3.82,22.74,22.74,0,0,0,0,32.47,22,22,0,0,0,27,3.83,25.45,25.45,0,0,0,8.72-8.22l1.09-1.65v8.11l-.15.17a26.2,26.2,0,0,1-20.11,8.95Z"/><path class="cls-1" d="M426.23,95.2A25.84,25.84,0,0,1,407,86.89a27.1,27.1,0,0,1-8-19.34,26.16,26.16,0,0,1,8.13-19.12,27.7,27.7,0,0,1,39.09,0,26.32,26.32,0,0,1,8.07,19.18,27.17,27.17,0,0,1-7.89,19.34,25.69,25.69,0,0,1-19.19,8.25Zm.57-50.48a22,22,0,0,0-16.12,6.93,22.52,22.52,0,0,0-6.82,16.24,23.28,23.28,0,0,0,23,22.94,21.64,21.64,0,0,0,16-6.81,23,23,0,0,0-.06-32.42A21.69,21.69,0,0,0,426.8,44.72Z"/><path class="cls-1" d="M426.23,95.2A25.84,25.84,0,0,1,407,86.89a27.1,27.1,0,0,1-8-19.34,26.16,26.16,0,0,1,8.13-19.12,27.7,27.7,0,0,1,39.09,0,26.32,26.32,0,0,1,8.07,19.18,27.17,27.17,0,0,1-7.89,19.34,25.69,25.69,0,0,1-19.19,8.25Zm.57-50.48a22,22,0,0,0-16.12,6.93,22.52,22.52,0,0,0-6.82,16.24,23.28,23.28,0,0,0,23,22.94,21.64,21.64,0,0,0,16-6.81,23,23,0,0,0-.06-32.42A21.69,21.69,0,0,0,426.8,44.72Z"/><path class="cls-1" d="M463.95,93.95V40.72a18.86,18.86,0,0,1,5.87-14.24A19.91,19.91,0,0,1,484,20.92h.59v4.37H484a15,15,0,0,0-15.21,15.44V70h15.92V74.4H468.77V93.95Z"/><path class="cls-1" d="M463.95,93.95V40.72a18.86,18.86,0,0,1,5.87-14.24A19.91,19.91,0,0,1,484,20.92h.59v4.37H484a15,15,0,0,0-15.21,15.44V70h15.92V74.4H468.77V93.95Z"/><path class="cls-1" d="M492.6,93.95V40.72a18.86,18.86,0,0,1,5.87-14.24,19.91,19.91,0,0,1,14.16-5.56h.59v4.37h-.59a15,15,0,0,0-15.21,15.44V70h15.92V74.4H497.42V93.95Z"/><path class="cls-1" d="M492.6,93.95V40.72a18.86,18.86,0,0,1,5.87-14.24,19.91,19.91,0,0,1,14.16-5.56h.59v4.37h-.59a15,15,0,0,0-15.21,15.44V70h15.92V74.4H497.42V93.95Z"/><path class="cls-1" d="M546.39,95.31A26.26,26.26,0,0,1,527.16,87,26.81,26.81,0,0,1,519,67.66a26.16,26.16,0,0,1,8.13-19.12,27.51,27.51,0,0,1,20.09-8.07c7.94,0,14.86,3.2,20.56,9.52l.38.42L532.51,85.58c4.61,3.56,9.09,5.37,13.32,5.37a23.45,23.45,0,0,0,11.92-3,26.4,26.4,0,0,0,8.73-8.18l1.08-1.61v8l-.15.17a26.16,26.16,0,0,1-20,9.06Zm-.17-50.48a21.57,21.57,0,0,0-15.61,6.82,21.63,21.63,0,0,0-6.82,15.67,22.77,22.77,0,0,0,5.47,15l32.17-32A23.25,23.25,0,0,0,546.22,44.84Z"/><path class="cls-1" d="M546.39,95.31A26.26,26.26,0,0,1,527.16,87,26.81,26.81,0,0,1,519,67.66a26.16,26.16,0,0,1,8.13-19.12,27.51,27.51,0,0,1,20.09-8.07c7.94,0,14.86,3.2,20.56,9.52l.38.42L532.51,85.58c4.61,3.56,9.09,5.37,13.32,5.37a23.45,23.45,0,0,0,11.92-3,26.4,26.4,0,0,0,8.73-8.18l1.08-1.61v8l-.15.17a26.16,26.16,0,0,1-20,9.06Zm-.17-50.48a21.57,21.57,0,0,0-15.61,6.82,21.63,21.63,0,0,0-6.82,15.67,22.77,22.77,0,0,0,5.47,15l32.17-32A23.25,23.25,0,0,0,546.22,44.84Z"/><path class="cls-1" d="M602.67,95.31A26.26,26.26,0,0,1,583.43,87a26.81,26.81,0,0,1-8.19-19.34,26.16,26.16,0,0,1,8.13-19.12,27.51,27.51,0,0,1,20.09-8.07c7.94,0,14.86,3.2,20.56,9.52l.38.42L588.78,85.58c4.61,3.56,9.09,5.37,13.32,5.37a23.45,23.45,0,0,0,11.92-3,26.4,26.4,0,0,0,8.73-8.18l1.08-1.61v8l-.15.17a26.17,26.17,0,0,1-20,9.06Zm-.17-50.48a21.57,21.57,0,0,0-15.61,6.82,21.63,21.63,0,0,0-6.82,15.67,22.77,22.77,0,0,0,5.47,15l32.17-32A23.25,23.25,0,0,0,602.5,44.84Z"/><path class="cls-1" d="M602.67,95.31A26.26,26.26,0,0,1,583.43,87a26.81,26.81,0,0,1-8.19-19.34,26.16,26.16,0,0,1,8.13-19.12,27.51,27.51,0,0,1,20.09-8.07c7.94,0,14.86,3.2,20.56,9.52l.38.42L588.78,85.58c4.61,3.56,9.09,5.37,13.32,5.37a23.45,23.45,0,0,0,11.92-3,26.4,26.4,0,0,0,8.73-8.18l1.08-1.61v8l-.15.17a26.17,26.17,0,0,1-20,9.06Zm-.17-50.48a21.57,21.57,0,0,0-15.61,6.82,21.63,21.63,0,0,0-6.82,15.67,22.77,22.77,0,0,0,5.47,15l32.17-32A23.25,23.25,0,0,0,602.5,44.84Z"/><g class="cls-3"><path class="cls-2" d="M292.4,150.84a6.64,6.64,0,0,1-2.59,5.57,11.23,11.23,0,0,1-7,2,17.62,17.62,0,0,1-7.4-1.24v-3a19.36,19.36,0,0,0,3.63,1.11,19.14,19.14,0,0,0,3.89.41,7.84,7.84,0,0,0,4.74-1.19,3.92,3.92,0,0,0,1.59-3.32,4.27,4.27,0,0,0-.56-2.3,5.26,5.26,0,0,0-1.89-1.66,26.3,26.3,0,0,0-4-1.72,12.84,12.84,0,0,1-5.39-3.2,7.06,7.06,0,0,1-1.62-4.83,6,6,0,0,1,2.35-5,9.77,9.77,0,0,1,6.22-1.85,18.31,18.31,0,0,1,7.42,1.48l-1,2.74a16.78,16.78,0,0,0-6.51-1.41,6.31,6.31,0,0,0-3.9,1.07,3.54,3.54,0,0,0-1.41,3,4.57,4.57,0,0,0,.52,2.3,4.86,4.86,0,0,0,1.75,1.65,21.6,21.6,0,0,0,3.77,1.66q4.26,1.52,5.86,3.26A6.41,6.41,0,0,1,292.4,150.84Z"/><path class="cls-2" d="M315,147.87q0,5-2.5,7.74a8.8,8.8,0,0,1-6.9,2.78,9.14,9.14,0,0,1-4.83-1.28,8.42,8.42,0,0,1-3.26-3.66,12.76,12.76,0,0,1-1.15-5.59q0-5,2.48-7.73a8.77,8.77,0,0,1,6.88-2.77,8.58,8.58,0,0,1,6.76,2.83A11.14,11.14,0,0,1,315,147.87Zm-15.45,0a9.63,9.63,0,0,0,1.55,5.92,6.17,6.17,0,0,0,9.15,0,9.58,9.58,0,0,0,1.56-5.93,9.42,9.42,0,0,0-1.56-5.87,5.49,5.49,0,0,0-4.62-2,5.4,5.4,0,0,0-4.55,2Q299.52,144,299.52,147.87Z"/><path class="cls-2" d="M333.27,158H330.2V129.24h3.07Z"/><path class="cls-2" d="M339.53,132.26a2,2,0,0,1,.52-1.54,1.92,1.92,0,0,1,2.57,0,2,2,0,0,1,.54,1.54,2,2,0,0,1-.54,1.55,1.79,1.79,0,0,1-1.28.51,1.77,1.77,0,0,1-1.3-.51A2.08,2.08,0,0,1,339.53,132.26ZM342.86,158h-3.07V137.75h3.07Z"/><path class="cls-2" d="M366,137.75v1.94l-3.76.44a6.6,6.6,0,0,1,1.33,4.05,6,6,0,0,1-2,4.76,8.21,8.21,0,0,1-5.59,1.78,9.23,9.23,0,0,1-1.7-.15,3,3,0,0,0-2,2.61,1.33,1.33,0,0,0,.68,1.23,5,5,0,0,0,2.35.4h3.59a8,8,0,0,1,5.06,1.39,4.82,4.82,0,0,1,1.77,4,5.76,5.76,0,0,1-2.7,5.13q-2.7,1.77-7.88,1.77a10.76,10.76,0,0,1-6.13-1.48,4.78,4.78,0,0,1-2.16-4.18,4.69,4.69,0,0,1,1.18-3.2,6,6,0,0,1,3.33-1.83,3.22,3.22,0,0,1-1.3-1.09,2.89,2.89,0,0,1-.53-1.72,3.26,3.26,0,0,1,.59-1.94,6.22,6.22,0,0,1,1.87-1.61,5.48,5.48,0,0,1-2.56-2.2,6.47,6.47,0,0,1-1-3.55,6.56,6.56,0,0,1,2-5.13,8.16,8.16,0,0,1,5.66-1.8,10.28,10.28,0,0,1,2.87.37ZM349.8,161.44a2.75,2.75,0,0,0,1.39,2.5,7.66,7.66,0,0,0,4,.85,11.11,11.11,0,0,0,5.73-1.16,3.54,3.54,0,0,0,1.86-3.14,2.48,2.48,0,0,0-1-2.29,7.9,7.9,0,0,0-3.83-.64h-3.68a4.85,4.85,0,0,0-3.26,1A3.57,3.57,0,0,0,349.8,161.44Zm1.67-17.19a4.13,4.13,0,0,0,1.2,3.22,4.8,4.8,0,0,0,3.35,1.09q4.5,0,4.5-4.37,0-4.57-4.55-4.57a4.51,4.51,0,0,0-3.33,1.17A4.7,4.7,0,0,0,351.46,144.25Z"/><path class="cls-2" d="M384,158V144.91a5.29,5.29,0,0,0-1.13-3.7,4.6,4.6,0,0,0-3.53-1.22,5.79,5.79,0,0,0-4.67,1.74q-1.47,1.74-1.47,5.7V158h-3.07V129.24h3.07V138a19.06,19.06,0,0,1-.15,2.61h.18a6.27,6.27,0,0,1,2.58-2.3,8.38,8.38,0,0,1,3.82-.84q3.72,0,5.58,1.77t1.86,5.62V158Z"/><path class="cls-2" d="M399.94,155.87a10,10,0,0,0,1.57-.12,10.49,10.49,0,0,0,1.2-.25v2.35a5.62,5.62,0,0,1-1.47.4,11.15,11.15,0,0,1-1.75.16q-5.88,0-5.88-6.2V140.14h-2.91v-1.48l2.91-1.28,1.3-4.33h1.78v4.7h5.88v2.39h-5.88v11.93a4.1,4.1,0,0,0,.87,2.81A3,3,0,0,0,399.94,155.87Z"/><path class="cls-2" d="M406.32,156.07a2.75,2.75,0,0,1,.56-1.88,2,2,0,0,1,1.62-.64,2.19,2.19,0,0,1,1.67.64,2.65,2.65,0,0,1,.6,1.88,2.6,2.6,0,0,1-.61,1.85,2.43,2.43,0,0,1-3.23.06A2.53,2.53,0,0,1,406.32,156.07Z"/><path class="cls-2" d="M423.22,165.16a6.21,6.21,0,0,1-2.74-.5V162a10,10,0,0,0,2.74.37,3.47,3.47,0,0,0,2.78-1.11,4.78,4.78,0,0,0,1-3.2V131h3.15v26.79a7.76,7.76,0,0,1-1.78,5.45A6.59,6.59,0,0,1,423.22,165.16Z"/><path class="cls-2" d="M439.7,137.75v13.16a5.29,5.29,0,0,0,1.13,3.7,4.6,4.6,0,0,0,3.53,1.22,5.77,5.77,0,0,0,4.65-1.74q1.47-1.74,1.47-5.68V137.75h3.07V158H451l-.44-2.72h-.17a6.12,6.12,0,0,1-2.62,2.29,8.82,8.82,0,0,1-3.82.8q-3.7,0-5.54-1.76T436.59,151V137.75Z"/><path class="cls-2" d="M473.16,152.5a5.08,5.08,0,0,1-2.11,4.37,9.91,9.91,0,0,1-5.92,1.54,12.87,12.87,0,0,1-6.29-1.28v-2.85a15.27,15.27,0,0,0,3.14,1.17,13.06,13.06,0,0,0,3.23.43,7.33,7.33,0,0,0,3.7-.77,2.64,2.64,0,0,0,.27-4.37,16.15,16.15,0,0,0-4-2,21.67,21.67,0,0,1-4-1.84,5.51,5.51,0,0,1-1.78-1.79,4.66,4.66,0,0,1-.58-2.39,4.55,4.55,0,0,1,2-3.91,9.4,9.4,0,0,1,5.53-1.43,16.19,16.19,0,0,1,6.4,1.33l-1.09,2.5a14.68,14.68,0,0,0-5.53-1.26,6.37,6.37,0,0,0-3.29.68,2.12,2.12,0,0,0-1.11,1.89,2.29,2.29,0,0,0,.42,1.39,4.1,4.1,0,0,0,1.34,1.09,30.14,30.14,0,0,0,3.55,1.5,13.29,13.29,0,0,1,4.88,2.65A4.67,4.67,0,0,1,473.16,152.5Z"/><path class="cls-2" d="M484.7,155.87a10,10,0,0,0,1.57-.12,10.49,10.49,0,0,0,1.2-.25v2.35a5.62,5.62,0,0,1-1.47.4,11.15,11.15,0,0,1-1.75.16q-5.88,0-5.88-6.2V140.14h-2.9v-1.48l2.9-1.28,1.3-4.33h1.78v4.7h5.88v2.39h-5.88v11.93a4.1,4.1,0,0,0,.87,2.81A3,3,0,0,0,484.7,155.87Z"/><path class="cls-2" d="M510.52,140.14h-5.16V158h-3.07V140.14h-3.63v-1.39l3.63-1.11v-1.13q0-7.48,6.53-7.48a13.41,13.41,0,0,1,3.77.65l-.8,2.46a10.18,10.18,0,0,0-3-.57,3,3,0,0,0-2.57,1.16,6.45,6.45,0,0,0-.83,3.71v1.31h5.16Z"/><path class="cls-2" d="M531.72,147.87q0,5-2.5,7.74a8.8,8.8,0,0,1-6.9,2.78,9.14,9.14,0,0,1-4.83-1.28,8.42,8.42,0,0,1-3.26-3.66,12.75,12.75,0,0,1-1.15-5.59q0-5,2.48-7.73a8.77,8.77,0,0,1,6.88-2.77,8.58,8.58,0,0,1,6.76,2.83A11.14,11.14,0,0,1,531.72,147.87Zm-15.45,0a9.63,9.63,0,0,0,1.55,5.92,6.17,6.17,0,0,0,9.15,0,9.58,9.58,0,0,0,1.56-5.93A9.43,9.43,0,0,0,527,142a5.49,5.49,0,0,0-4.62-2,5.4,5.4,0,0,0-4.55,2Q516.27,144,516.27,147.87Z"/><path class="cls-2" d="M546.36,137.38a12,12,0,0,1,2.42.22l-.43,2.85a10.46,10.46,0,0,0-2.22-.28,5.4,5.4,0,0,0-4.21,2,7.29,7.29,0,0,0-1.75,5V158h-3.07V137.75h2.53l.35,3.76h.15a8.89,8.89,0,0,1,2.72-3.05A6.13,6.13,0,0,1,546.36,137.38Z"/><path class="cls-2" d="M559.2,137.75h3.29l4.44,11.56a44.1,44.1,0,0,1,1.81,5.72h.15q.24-.94,1-3.23t5-14.05h3.29l-8.72,23.09a11.52,11.52,0,0,1-3,4.86,6.44,6.44,0,0,1-4.25,1.43,12.3,12.3,0,0,1-2.78-.31v-2.46a10.7,10.7,0,0,0,2.28.22q3.16,0,4.51-3.55l1.13-2.89Z"/><path class="cls-2" d="M599,147.87q0,5-2.5,7.74a8.8,8.8,0,0,1-6.9,2.78,9.14,9.14,0,0,1-4.83-1.28,8.43,8.43,0,0,1-3.26-3.66,12.76,12.76,0,0,1-1.15-5.59q0-5,2.48-7.73a8.77,8.77,0,0,1,6.88-2.77,8.58,8.58,0,0,1,6.76,2.83A11.14,11.14,0,0,1,599,147.87Zm-15.45,0a9.63,9.63,0,0,0,1.55,5.92,6.17,6.17,0,0,0,9.15,0,9.58,9.58,0,0,0,1.56-5.93,9.42,9.42,0,0,0-1.56-5.87,5.49,5.49,0,0,0-4.62-2,5.4,5.4,0,0,0-4.55,2Q583.57,144,583.57,147.87Z"/><path class="cls-2" d="M607.29,137.75v13.16a5.29,5.29,0,0,0,1.13,3.7,4.6,4.6,0,0,0,3.53,1.22,5.77,5.77,0,0,0,4.65-1.74q1.47-1.74,1.47-5.68V137.75h3.07V158h-2.53l-.44-2.72H618a6.12,6.12,0,0,1-2.62,2.29,8.82,8.82,0,0,1-3.82.8q-3.7,0-5.54-1.76T604.18,151V137.75Z"/></g></g></g></svg>