<svg xmlns="http://www.w3.org/2000/svg" viewBox="0 0 91.61 126.01"><defs><style>.cls-1{fill:#cccaca;}.cls-2{fill:snow;}.cls-3{fill:#482c18;}.cls-4{fill:#5e2e1d;}.cls-5{fill:#ffe7de;}.cls-6{fill:#ffceb8;}.cls-7{opacity:0.2;}.cls-8{fill:#050505;}.cls-9{fill:#fcfcfc;opacity:0.1;}</style></defs><title>chocolate</title><g id="Layer_2" data-name="Layer 2"><g id="OBJECTS"><path class="cls-1" d="M77.15,30.25H67.26v7.3h7.61a9.73,9.73,0,0,1,9.73,9.73v9.44a9.73,9.73,0,0,1-9.73,9.73H67.26v7.3h9.89A14.46,14.46,0,0,0,91.61,59.31V44.7A14.46,14.46,0,0,0,77.15,30.25Z"/><path class="cls-1" d="M35,9.25H0V71.79a31.5,31.5,0,0,0,31.5,31.5h7A31.5,31.5,0,0,0,70,71.79V9.25Z"/><path class="cls-2" d="M62.7,9.25V71.79a31.5,31.5,0,0,1-31.35,31.49H38.5A31.5,31.5,0,0,0,70,71.79V9.25Z"/><path class="cls-3" d="M35,9.25H6.47V66.91c0,16,11.5,29,25.68,29h5.71c14.18,0,25.68-13,25.68-29V9.25Z"/><path class="cls-4" d="M35,9.25H6.47V66.91c0,16,11.5,29,25.68,29h5.71c14.18,0,25.68-13,25.68-29V9.25Z"/><path class="cls-5" d="M20.87,11.07H18.14A4.12,4.12,0,0,1,14,7h0a4.12,4.12,0,0,1,4.11-4.11h2.73A4.12,4.12,0,0,1,25,7h0A4.12,4.12,0,0,1,20.87,11.07Z"/><path class="cls-5" d="M29.07,8.94l-2.53-1a4.12,4.12,0,0,1-2.25-5.36h0A4.12,4.12,0,0,1,29.65.3l2.53,1a4.12,4.12,0,0,1,2.25,5.36h0A4.12,4.12,0,0,1,29.07,8.94Z"/><path class="cls-5" d="M41,11.07H38.24A4.12,4.12,0,0,1,34.13,7h0a4.12,4.12,0,0,1,4.11-4.11H41A4.12,4.12,0,0,1,45.08,7h0A4.12,4.12,0,0,1,41,11.07Z"/><path class="cls-5" d="M47.64,10.43l.12-2.73A4.12,4.12,0,0,1,52,3.78h0A4.12,4.12,0,0,1,56,8.06l-.12,2.73a4.12,4.12,0,0,1-4.28,3.93h0A4.12,4.12,0,0,1,47.64,10.43Z"/><polygon class="cls-6" points="63.53 9.25 35 9.25 6.47 9.25 6.47 17.24 63.53 17.24 63.53 9.25"/><g class="cls-7"><path class="cls-8" d="M12.78,71.79V9.25H0V71.79a31.5,31.5,0,0,0,31.5,31.5h7c1,0,1.94-.06,2.89-.15A31.49,31.49,0,0,1,12.78,71.79Z"/></g><path class="cls-2" d="M91.61,44.7A14.46,14.46,0,0,0,77.15,30.25H67.26v7.3h7.61a9.73,9.73,0,0,1,9.73,9.73v9.44a9.67,9.67,0,0,1-.86,4l5.49,6.54a14.38,14.38,0,0,0,2.37-7.93Z"/><path class="cls-9" d="M56.83,9.25v58S57.75,96,35,101.88c0,0,8.75-10.5,8.14-34.64-.62-24.64-1.75-58-1.75-58Z"/><path class="cls-1" d="M56.59,121.87,44.26,107.31H25.67L13.35,121.87c-1.28,1.51-.39,4.14,1.4,4.14H55.19C57,126,57.87,123.38,56.59,121.87Z"/><g class="cls-7"><path class="cls-8" d="M50.42,114.58l-6.16-7.27H25.67l-6,7.11A31.86,31.86,0,0,0,35,118.64,32.41,32.41,0,0,0,50.42,114.58Z"/></g><ellipse class="cls-1" cx="34.97" cy="107.31" rx="15.08" ry="6.86"/><ellipse class="cls-2" cx="37.28" cy="105.32" rx="10.7" ry="4.87"/><path class="cls-2" d="M38.45,118.64,44.39,126H55.64c1.42,0,2.15-2.05,1.17-3.29l-6.39-8.13S43.1,118.69,38.45,118.64Z"/></g></g></svg>