<svg xmlns="http://www.w3.org/2000/svg" viewBox="0 0 79.76 105.34"><defs><style>.cls-1{fill:#cccaca;}.cls-2{fill:#aa6e44;}.cls-3{fill:#33261c;}.cls-4{fill:#5b4638;}.cls-5{fill:#d69464;}.cls-6{fill:#050505;opacity:0.16;}.cls-7{fill:#fcfcfc;opacity:0.1;}.cls-8{fill:snow;}</style></defs><title>cooa</title><g id="Layer_2" data-name="Layer 2"><g id="OBJECTS"><polygon class="cls-1" points="39.88 22.11 0 22.11 13.87 105.34 39.88 105.34 65.89 105.34 79.76 22.11 39.88 22.11"/><polygon class="cls-2" points="39.88 25.14 7.27 25.14 18.61 91.83 39.88 91.83 61.15 91.83 72.49 25.14 39.88 25.14"/><path class="cls-3" d="M53.62,24.12,66.22,0l6.89,2.51L60.43,27.62A3.83,3.83,0,0,1,57,29.72h0A3.83,3.83,0,0,1,53.62,24.12Z"/><polygon class="cls-4" points="70.75 3.69 57.54 29.69 68.15 4.43 64.58 3.13 65.41 1.54 70.75 3.69"/><polygon class="cls-5" points="72.49 25.14 39.88 25.14 7.27 25.14 9.67 39.23 69.7 39.23 72.49 25.14"/><polygon class="cls-6" points="17.5 22.11 28.76 105.34 13.87 105.34 0 22.11 17.5 22.11"/><polygon class="cls-7" points="68.33 22.11 54.63 105.34 47.02 105.34 50.07 22.11 68.33 22.11"/><polygon class="cls-8" points="79.76 22.11 65.89 105.34 58.89 105.34 72.49 22.11 79.76 22.11"/></g></g></svg>