<svg xmlns="http://www.w3.org/2000/svg" viewBox="0 0 105.61 63.3"><defs><style>.cls-1{fill:#eee;}.cls-2{fill:#dddbdb;}.cls-3{fill:#b7b3b3;}.cls-4{fill:snow;}.cls-5{fill:#cccaca;}.cls-6{fill:#482c18;}.cls-7{fill:#33261c;}.cls-8{fill:#ffc994;}.cls-9{fill:#fcfcfc;opacity:0.1;}.cls-10{fill:#050505;opacity:0.16;}.cls-11{fill:#ffbd76;}</style></defs><title>espresso</title><g id="Layer_2" data-name="Layer 2"><g id="OBJECTS"><path class="cls-1" d="M101.35,58.74H4.26A4.26,4.26,0,0,1,0,54.48H0a4.26,4.26,0,0,1,4.26-4.26h97.09a4.26,4.26,0,0,1,4.26,4.26h0A4.26,4.26,0,0,1,101.35,58.74Z"/><rect class="cls-2" x="18.87" y="58.74" width="67.87" height="4.57"/><rect class="cls-3" x="18.87" y="59.2" width="67.87" height="2.28"/><path class="cls-1" d="M89.93,10.5a15.68,15.68,0,1,0,15.68,15.68A15.68,15.68,0,0,0,89.93,10.5Zm0,25.8a10.12,10.12,0,1,1,10.12-10.12A10.12,10.12,0,0,1,89.93,36.3Z"/><path class="cls-4" d="M105.61,26.18a15.66,15.66,0,0,0-20.15-15l.76,5.61a10.11,10.11,0,0,1,11,16.47l3,4.76A15.63,15.63,0,0,0,105.61,26.18Z"/><path class="cls-5" d="M92.42,0H13.19S6.39,37.43,38.35,50.22H67.26C99.22,37.43,92.42,0,92.42,0Z"/><path class="cls-6" d="M20.1,5.63a2.59,2.59,0,0,0-2.6,2.58,61,61,0,0,0,.78,9.61c2.85,17.38,17.56,30,34.52,30s31.66-12.58,34.52-30a61,61,0,0,0,.78-9.61,2.59,2.59,0,0,0-2.6-2.58Z"/><path class="cls-7" d="M52.8,47.78a34.46,34.46,0,0,0,23.26-9.13H29.55A34.46,34.46,0,0,0,52.8,47.78Z"/><path class="cls-8" d="M17.5,7.56v0H88.1v0a4,4,0,0,0-4-3.91H21.47A4,4,0,0,0,17.5,7.56Z"/><path class="cls-9" d="M52.8,50.22S74,42.15,72.17,0H84S88.68,41.7,52.8,50.22Z"/><path class="cls-10" d="M67.26,50.22S26.65,44.43,29.55,0H13.19S6.81,37.13,38.35,50.22Z"/><path class="cls-4" d="M101.35,50.22H4.26A4.26,4.26,0,0,0,0,54.48H105.61A4.26,4.26,0,0,0,101.35,50.22Z"/><path class="cls-4" d="M89.93,0s9.52,29.59-22.67,50.22C67.26,50.22,93,32,86.74,0Z"/><path class="cls-11" d="M88.11,8.21a2.59,2.59,0,0,0-2.6-2.58H20.1a2.59,2.59,0,0,0-2.6,2.58A62.12,62.12,0,0,0,18,16.05H87.57A62.27,62.27,0,0,0,88.11,8.21Z"/></g></g></svg>