<svg xmlns="http://www.w3.org/2000/svg" xmlns:xlink="http://www.w3.org/1999/xlink" viewBox="0 0 91.49 162.44"><defs><style>.cls-1{fill:none;}.cls-2{fill:#cccaca;}.cls-3{fill:#eaab8b;}.cls-4{fill:#e09d80;}.cls-5{fill:#ffe5d7;}.cls-6{fill:#050505;opacity:0.16;}.cls-7{fill:#fcfcfc;opacity:0.1;}.cls-8{fill:snow;}.cls-9{clip-path:url(#clip-path);}.cls-10{fill:#98644d;}.cls-11{fill:#e49662;}</style><clipPath id="clip-path"><path class="cls-1" d="M57.72,41.25a5.56,5.56,0,0,0-4.37-9H49.22a4.89,4.89,0,0,0-4-7.76H35.66a4.89,4.89,0,0,0-4,7.76H27.55a5.56,5.56,0,0,0-4.37,9,14.73,14.73,0,0,0-12.83,14.6h60.2A14.73,14.73,0,0,0,57.72,41.25Z"/></clipPath></defs><title>frappe</title><g id="Layer_2" data-name="Layer 2"><g id="OBJECTS"><polygon class="cls-2" points="40.45 55.85 4.54 55.85 21.28 162.06 40.45 162.06 59.63 162.06 76.36 55.85 40.45 55.85"/><polygon class="cls-3" points="40.45 60.34 10.35 57.32 25.78 153.72 40.45 153.72 55.61 153.72 70.55 60.34 40.45 60.34"/><polygon class="cls-4" points="70.55 60.34 40.45 63.23 11.1 59.14 13.8 81.21 68.39 81.28 70.55 60.34"/><polygon class="cls-5" points="70.55 55.85 10.35 55.85 12.81 75.19 67.6 75.19 70.55 55.85"/><polygon class="cls-6" points="19.15 55.85 33.76 162.06 21.28 162.06 4.54 55.85 19.15 55.85"/><polygon class="cls-7" points="66.59 55.85 50.46 162.44 40.45 162.06 50.46 55.85 66.59 55.85"/><polygon class="cls-8" points="76.36 55.85 59.63 162.06 54.47 162.06 70.55 55.85 76.36 55.85"/><g class="cls-9"><path class="cls-5" d="M57.72,41.25a5.56,5.56,0,0,0-4.37-9H49.22a4.89,4.89,0,0,0-4-7.76H35.66a4.89,4.89,0,0,0-4,7.76H27.55a5.56,5.56,0,0,0-4.37,9,14.73,14.73,0,0,0-12.83,14.6h60.2A14.73,14.73,0,0,0,57.72,41.25Z"/><polygon class="cls-10" points="89.06 53.92 88.61 53.95 87.44 54.23 89.06 53.92"/><path class="cls-10" d="M81.34,55.29c.23,0,.12,0,.36,0l4.51-1C84.16,54.51,82.7,55.21,81.34,55.29Z"/><path class="cls-10" d="M80,55.44a14.93,14.93,0,0,0-2.91.49C77.69,55.74,80.4,55.54,80,55.44Z"/><path class="cls-10" d="M65.64,11.76a4.66,4.66,0,0,0-.4-.37Z"/><path class="cls-10" d="M69.86,49.58l-.19.4a20.45,20.45,0,0,0,4.47-11.07,40.49,40.49,0,0,0-.7-12.35l.08.27.07.27A30.89,30.89,0,0,0,67.7,13.2a18.21,18.21,0,0,0-5.77-4.71,19.89,19.89,0,0,0-7.14-2,38.3,38.3,0,0,0-7.4.08A61.38,61.38,0,0,0,40,7.74a62.76,62.76,0,0,0-14.19,5l.66-.37c-.88.44-1.81,1-2.79,1.52-.26.12.24-.2.56-.37a45.61,45.61,0,0,0-7,4.33,49.3,49.3,0,0,0-5.36,4.59c-.81.9-1.1,1.35-.61.89C8.63,26.24,6.53,29.95,6.31,34a15.4,15.4,0,0,0,4.36,11.06A27.1,27.1,0,0,0,21,51.66a55.48,55.48,0,0,0,5.85,1.91c2,.6,4,1,5.93,1.47.76.17.89.25.67.27,13.66,2.54,28.33,2.3,42.43.7.53-.14-1.45.08-.07-.16-4.54.43-8.3,1-12.45,1.11l.53-.1c-3,.09-.6.24-3.72.26-1.23,0,.3-.1-.27-.1a150.19,150.19,0,0,1-19-.66c-.73-.18-2.42-.44-4.22-.71a48.72,48.72,0,0,1-4.82-1.05c-1.62-.32-3.23-.71-3.85-.81-5.35-1.5-10.77-3.38-15.07-6.94a18.48,18.48,0,0,1-5-6.5,13.26,13.26,0,0,1-1-8.06,17.74,17.74,0,0,1,3.56-7.48,33.2,33.2,0,0,1,6.08-5.89,59.58,59.58,0,0,1,15-8.21A53.93,53.93,0,0,1,48.24,6.89a32.11,32.11,0,0,1,9.26.54,17.34,17.34,0,0,1,8.18,4.32c.05.07,0,.07,0,0a21.15,21.15,0,0,1,4.29,5.72,31.88,31.88,0,0,1,2.68,7.34l.17.63.34,1.4.29,1.41c.08.38.12.64.12.64A38.56,38.56,0,0,1,73.61,40,21.49,21.49,0,0,1,72,45.37,17.85,17.85,0,0,1,69,50a23.55,23.55,0,0,1-9.38,5.9,50.86,50.86,0,0,1-11,2.5A77.65,77.65,0,0,1,26,58.16a42.66,42.66,0,0,1-10.78-3.34,30.45,30.45,0,0,1-9.12-6.51A18.53,18.53,0,0,1,.54,37.4a11.06,11.06,0,0,1,.11-3,12.22,12.22,0,0,1,.83-2.89,17.29,17.29,0,0,1,3.32-5,41.86,41.86,0,0,1,9.61-7.27,101.4,101.4,0,0,1,10.7-5.51A117.94,117.94,0,0,1,36.33,9.41,92.38,92.38,0,0,1,48,6.35,47.93,47.93,0,0,1,60,5.51,29.25,29.25,0,0,1,71.84,8.69c-.06,0,.18.13-.59-.24a23.9,23.9,0,0,1,9.85,9.48,18.35,18.35,0,0,1,2.17,6.29,16.49,16.49,0,0,1-.41,6.62l0,0c-1.48,5.4-5.79,9.88-10.91,12.48s-11.08,3.6-16.88,3.94a90.2,90.2,0,0,1-17.32-.67c-2.83-.39-5.62-.9-8.35-1.53a49.81,49.81,0,0,1-7.91-2.45A25.23,25.23,0,0,1,13.14,37a17.24,17.24,0,0,1-4.72-9,15.64,15.64,0,0,1,2-10.12A27.43,27.43,0,0,1,17.57,10a43.5,43.5,0,0,1,9.3-5.4A49.42,49.42,0,0,1,37.14,1.32,38.72,38.72,0,0,1,58.2,2.7l-.08,0a32,32,0,0,1,13.66,9.37,24.74,24.74,0,0,1,4.28,7.07,13.36,13.36,0,0,1,.86,4,8.52,8.52,0,0,1-.12,2,11.54,11.54,0,0,1-.49,2,13.82,13.82,0,0,1-5.12,6.28,22.4,22.4,0,0,1-3.56,2.09,29.5,29.5,0,0,1-3.84,1.54,64.77,64.77,0,0,1-16.43,2.76A68.77,68.77,0,0,1,30,38.15c-5.69-1.38-11.49-3.28-16.15-7A15.23,15.23,0,0,1,8.72,24a12.21,12.21,0,0,1,.54-8.7,15.88,15.88,0,0,1,2.33-3.77c.44-.6,1-1.1,1.48-1.65s1.06-1,1.66-1.47a26.41,26.41,0,0,1,7.62-4.31A42.23,42.23,0,0,1,33.6,1.93,42.75,42.75,0,0,1,45.78,3.06,41.88,41.88,0,0,1,57,7.53a35.3,35.3,0,0,1,8.57,6.91l.89,1c.29.32.54.68.81,1,.52.69,1.09,1.35,1.58,2.07a9.85,9.85,0,0,1,2,4.69,6.63,6.63,0,0,1-1.63,4.67,9.41,9.41,0,0,1-4.11,2.86c-3.21,1.17-6.71,1-10.12.92s-6.84-.34-10.25-.72S37.92,30,34.56,29.28a51.41,51.41,0,0,1-9.87-2.86,17.29,17.29,0,0,1-4.36-2.71,12.44,12.44,0,0,1-3.09-4.11,9.06,9.06,0,0,1-.8-5.09,10.23,10.23,0,0,1,2.17-4.73,22.16,22.16,0,0,1,7.73-5.7,31.89,31.89,0,0,1,9.26-2.57C42,.68,48.45,1.57,54.69,2.8l4.67,1A26.88,26.88,0,0,1,64,5a6.71,6.71,0,0,1,3.65,3.07,5.71,5.71,0,0,1,.14,4.74,13.43,13.43,0,0,1-6.48,6.74,30.6,30.6,0,0,1-8.8,3.2c-5.76,1.39-12.09,1.28-18.39.46q-2.37-.32-4.75-.74a26.17,26.17,0,0,1-4.68-1.2,10.11,10.11,0,0,1-4-2.59,7.16,7.16,0,0,1-1.81-4.35l0,.46a5.26,5.26,0,0,1,.9-3.39,7.29,7.29,0,0,1,2.86-2.21,20.38,20.38,0,0,1,5.79-1.68l-.48.12c2.44-.41,5.65-1.38,7.19-1.24l.4-.11c3-.13.36.07,2.69.07a10.68,10.68,0,0,1,2.17,0,29,29,0,0,0,3.84.54c1.81.23,3.57.65,3.62.87-1.6-.37,2.46.73-1.14,0,.51.12,2,.46,3.26.82a8.13,8.13,0,0,0,2.19.53c.46,0,2.39.46-.48-.66L51,8.4a9.08,9.08,0,0,1-1.07-.49c-1.94-.57-3.06-.82-4-1.08a27,27,0,0,0-3.26-.65s.06,0,0,0c-2-.08-4.73-.25-6.31-.21l-.63,0c-1-.18-4.57.72-3.37.32a44,44,0,0,0-6.27,1.26c-1.05.31-2.12.6-3.18,1a9.1,9.1,0,0,0-3,1.81,5.26,5.26,0,0,0-1.61,3.26,6.87,6.87,0,0,0,.66,3.57A8.12,8.12,0,0,0,21.16,20a11.6,11.6,0,0,0,3.1,1.74,28.76,28.76,0,0,0,3.67.95c1.33.24,2.25.35,1.28.1a48.83,48.83,0,0,0,5.65,1,58,58,0,0,0,5.91.46,2,2,0,0,1-.6,0,25.9,25.9,0,0,0,5.36,0L47.75,24l2.9-.26c.34-.18,2.42-.53,4.68-1.19a22.13,22.13,0,0,0,5.73-2.52c.52-.24.72-.29.56-.15a15.38,15.38,0,0,0,5-4.15,10.68,10.68,0,0,0,1.64-2.95,6.58,6.58,0,0,0,.3-3.44,5.93,5.93,0,0,0-1.64-3,8.5,8.5,0,0,0-2.73-1.75,32.9,32.9,0,0,0-5.51-1.5c-2.94-.53-6.49-1.3-10-1.81A41.7,41.7,0,0,0,39.14.82a35.73,35.73,0,0,0-7.94,1,26.05,26.05,0,0,0-8.52,3.76l.48-.35A21.67,21.67,0,0,0,19,8.66a11.72,11.72,0,0,0-2.8,4.83,9,9,0,0,0,.21,5.2,11.43,11.43,0,0,0,2.09,3.65A9.79,9.79,0,0,0,21,25.05a20.41,20.41,0,0,0,3.75,2.24c4.27,1.79,13.15,3.67,20,4.31,1,.28,5.63.48,6,.67,2.4.11,4.87.16,7.4.14a20.08,20.08,0,0,0,7.72-1.31,9.16,9.16,0,0,0,5.39-6A6.79,6.79,0,0,0,70.79,21a15.21,15.21,0,0,0-2.16-3.54A40.19,40.19,0,0,0,56.31,6.69a44.19,44.19,0,0,0-15-5.19l.3,0-2.08-.12-1.07-.05-1.09,0-2.16.07-2.08.22c-.27,0-.24,0,.33-.06a38.72,38.72,0,0,0-10.81,2s0,0,.59-.25a25.66,25.66,0,0,0-9.88,5.76l-.21.12-.3.29-.62.69a11.85,11.85,0,0,0-.86,1c0-.08-.05-.27,1-1.29A18,18,0,0,0,8.78,15a12.83,12.83,0,0,0,.7,12.1,17.59,17.59,0,0,0,4.16,4.64,33.72,33.72,0,0,0,11,5.59,63.86,63.86,0,0,0,12,2.69,65.48,65.48,0,0,0,24.57-1.56,28.74,28.74,0,0,0,11.2-5.27,13.87,13.87,0,0,0,3.92-4.88,11.14,11.14,0,0,0,.91-6.2s.06.3.1.61.07.62.07.62,0-.41-.09-1a14.13,14.13,0,0,0-.5-2.19,18.38,18.38,0,0,0-1.25-3,2.86,2.86,0,0,1,.34.56,26.28,26.28,0,0,0-3.27-5.27A30.2,30.2,0,0,0,68.24,8,35.43,35.43,0,0,0,57.57,2.12s1.2.35.16-.08C52.08.31,48.43-.17,45.48.13,45.2.1,45,0,45.62,0a49.15,49.15,0,0,0-23.7,6.57,34.1,34.1,0,0,0-9.64,7.89,18,18,0,0,0-4.5,11.49,16.51,16.51,0,0,0,3.82,9.79,24,24,0,0,0,8.62,6.6A47.8,47.8,0,0,0,30.68,45.7a78.56,78.56,0,0,0,10.7,1.58l-.08.06a95.12,95.12,0,0,0,14,.15,48.11,48.11,0,0,0,14-2.68,24.3,24.3,0,0,0,11.41-8.46,17.71,17.71,0,0,0,2.94-6.55,16.25,16.25,0,0,0-.14-7.16,20.85,20.85,0,0,0-2.06-5.15,23.28,23.28,0,0,0-3-4.08c-.53-.64-1.18-1.17-1.78-1.77s-1.28-1.12-2-1.6a24.32,24.32,0,0,0-4.83-2.75l-.15-.15C63.31,4.69,56,4.47,49,5.56A75.55,75.55,0,0,0,38.62,8a93.4,93.4,0,0,0-10,3.59l.86-.46c-1,.47-2.94,1.26-4.53,2s-2.81,1.31-2.38,1.27l-1.13.49-1.12.51c-2.07,1.15-4,2.28-6,3.43s-3.82,2.31-5.67,3.66a28.11,28.11,0,0,0-5.24,4.85A14.16,14.16,0,0,0,.22,34.57l0-.77a13.36,13.36,0,0,0,0,4.77,18.9,18.9,0,0,0,1.26,4c-.15-.32-.11-.16-.41-.83,1.7,4.6,5.5,8.46,9.81,11.31a40.61,40.61,0,0,0,14.49,5.42l-1.17-.08a77.32,77.32,0,0,0,9.61,1.1,77.94,77.94,0,0,0,10.82-.23l-.39.1,1.63-.19c.82-.09,1.63-.21,1.63-.21l.1.11a50.83,50.83,0,0,0,12.1-2.69A23.17,23.17,0,0,0,69.86,49.58Z"/><path class="cls-10" d="M24.27,13.51l.08,0C24.57,13.34,24.46,13.4,24.27,13.51Z"/><path class="cls-10" d="M41.61,6c.39,0,.71.09,1,.13A8.9,8.9,0,0,0,41.61,6Z"/><polygon class="cls-11" points="61.32 27.9 61.14 27.98 60.77 28.36 61.32 27.9"/><path class="cls-11" d="M58.6,30c.09,0,.07,0,.17,0l.77-.67.75-.69C59.46,29,59.17,29.77,58.6,30Z"/><path class="cls-11" d="M58.09,30.29a3.22,3.22,0,0,0-1,.78C57.24,30.84,58.32,30.33,58.09,30.29Z"/><path class="cls-11" d="M21.2,22.56l-.19.15A1.12,1.12,0,0,0,21.2,22.56Z"/><path class="cls-11" d="M37.2,14.52l.15-.16a62.47,62.47,0,0,0-10,3.9l.2-.14a47.46,47.46,0,0,0-10.89,7.43,17.73,17.73,0,0,0-3.91,5.18,7.81,7.81,0,0,0-.34,6.38c-.06-.12-.11-.16-.18-.29.19.39.44.8.68,1.21,0,.12-.12-.09-.2-.22a6.87,6.87,0,0,0,2.35,2.71A16.85,16.85,0,0,0,17.77,42c.51.17.75.14.49,0,3.34,1,7,.56,10.57-.13A75.92,75.92,0,0,0,39.3,39.11c.33-.08.41-.06.34,0A109.91,109.91,0,0,0,56.55,31.3c.16-.19-.59.26-.1-.13-1.75.95-3.08,2-4.75,2.7l.17-.18c-1.2.55-.15.29-1.42.81-.51.18.08-.15-.15,0-2.5,1.26-5.21,2.34-7.62,3.42-.66.08-2.84,1-3.88,1.16a11.48,11.48,0,0,0-1.61.65q-3.54,1-7.19,1.73a40.2,40.2,0,0,1-7.34.93,12.23,12.23,0,0,1-6.94-1.82,7.28,7.28,0,0,1-3.51-5.92c-.2-2.27,1-4.73,2.74-6.72a36.82,36.82,0,0,1,6.23-5.37s0,0,0,0A34.89,34.89,0,0,1,26.81,19l.78-.49.8-.46a55,55,0,0,1,19-4.87,35.85,35.85,0,0,1,9.87.51c3.18.7,6.37,2.16,8.16,4.88A9.1,9.1,0,0,1,67,23.69a15,15,0,0,1-1,5.19,24.12,24.12,0,0,1-2.38,4.69,34.54,34.54,0,0,1-3.1,4.22A39.39,39.39,0,0,1,43.14,49.56s-.11,0,.25-.14A36.18,36.18,0,0,1,31.5,51.1v0a35.54,35.54,0,0,1-14.72-3.28c-4.59-2.16-9-5.08-11.5-9.17a11,11,0,0,1-1.4-4.15A10.57,10.57,0,0,1,4.35,30a18.59,18.59,0,0,1,5.29-7.54,33.33,33.33,0,0,1,3.69-3l1.93-1.38c.66-.44,1.33-.85,2-1.27a70,70,0,0,1,8.28-4.43v.07A69.6,69.6,0,0,1,54,6.62,76.9,76.9,0,0,1,69.41,8.29a34.54,34.54,0,0,1,14.1,6.37,33.3,33.3,0,0,1,3.58,3.54,20.49,20.49,0,0,1,2.83,4.55,16.49,16.49,0,0,1,1.19,5.18,14.93,14.93,0,0,1-.63,4.8,24.32,24.32,0,0,1-4.36,7.9,35.64,35.64,0,0,1-6.47,6.2c-.59.47-1.22.87-1.83,1.3l-1.91,1.19c-1.25.84-2.62,1.47-3.94,2.22A63.51,63.51,0,0,1,63.54,55,87.41,87.41,0,0,1,47,58.14a93.36,93.36,0,0,1-16.61.09,75,75,0,0,1-16.46-2.29l.18.13c-1.93-.71-4.51-1.06-5.54-2l.2.08a8.19,8.19,0,0,0-1.63-.67,2.84,2.84,0,0,1-1.3-.64l-.2,0c-1.14-.7-.09-.15-.91-.77-.31-.22-.21,0-.83-.48,0-.18-.59-.69-1.2-1.22s-1.11-1.14-1-1.3c.49.52-.64-.92.51.19-.33-.32-1.62-2-1.66-1.79-.25-.05-.9-.67-.22.51l.27.14c.17.44.16.32.18.51.51.73.88,1.09,1.13,1.47a7.18,7.18,0,0,0,1,1.14s0,0,0,0c.37.25.8.56,1.2.86s.77.62,1.06.81l.2.21c.27.39,1.92.77,1.31.74a37.81,37.81,0,0,0,11.27,3.56c.57,0,3.05.47,2.21.15a26,26,0,0,0,5.06.8.45.45,0,0,1-.26,0c2.13.45,2.56-.05,4.56.4a7.88,7.88,0,0,1,2.1,0,13.49,13.49,0,0,0,2.72,0c.25.06.33.12.24.16,3.64.09,7.67.08,10.75-.11,2.61-.41,6.38-.47,8.57-1.18.93-.12,2.16-.26,3.45-.53.65-.13,1.32-.25,2-.41s1.32-.36,1.95-.56l-.24.1c1.44-.35,3-.89,4.5-1.38a38.62,38.62,0,0,0,3.68-1.57,15.5,15.5,0,0,0,3.28-1.11,59.32,59.32,0,0,0,7.65-4.79c.47-.15,1.94-1.59,2.17-1.55a31.15,31.15,0,0,0,8-11.2,17.5,17.5,0,0,0,1.19-7.18,17,17,0,0,0-1.85-6.89l.08.11c-.36-.49-.75-1-1.18-1.5s-.9-.94-1.34-1.35c-.07-.1,0-.11.14.08a23.71,23.71,0,0,0-3.42-3.45s0,0,.26.13A24.13,24.13,0,0,0,80,11.78l-.07-.09-1.06-.49c.05,0,.14-.11.68.21A40.14,40.14,0,0,0,69.45,7.66a71.09,71.09,0,0,0-10.7-1.51,73.7,73.7,0,0,0-21.58,2l.5-.18-1.36.38c-.34.09-.68.19-.92.28L35,8.75s.13-.09.26-.14a65.54,65.54,0,0,0-10.14,3.66s.47-.29,0-.14c-2.26,1.27-3.86,1.58-4.81,2.56-.11,0-.22,0,0-.14a73.21,73.21,0,0,0-9.07,6c-2.83,2.29-5.52,5-7,8.42a12.38,12.38,0,0,0-.73,4.65,11.22,11.22,0,0,0,1.27,4.65,18.29,18.29,0,0,0,6.65,6.84l-.06,0a39.37,39.37,0,0,0,23.82,6.29,35.42,35.42,0,0,0,9.11-1.91l.11.05a54.39,54.39,0,0,0,8.21-4,29,29,0,0,0,7.13-6l-.21.38c.56-.78,2.5-2.77,2-2.68l.73-.8c1.07-1.8,2.14-3.35,3.1-5.12a15.06,15.06,0,0,0,1.94-6.36l0,.34a15.34,15.34,0,0,0-.24-3.93c0,.15,0,.07.14.39a8.53,8.53,0,0,0-3.38-5.64,16.29,16.29,0,0,0-6.25-2.71h.53a42.07,42.07,0,0,0-4.21-.62c-.81-.08-1.64-.11-2.45-.12s-1.59,0-2.31,0l.17-.07-1.44.14,0-.12A50.49,50.49,0,0,0,37.2,14.52Z"/><path class="cls-11" d="M12.71,37.82v0C12.63,37.69,12.66,37.74,12.71,37.82Z"/><path class="cls-11" d="M3.17,51.59l-.33-.33A2.78,2.78,0,0,0,3.17,51.59Z"/></g></g></g></svg>