<svg xmlns="http://www.w3.org/2000/svg" viewBox="0 0 66.96 117.17"><defs><style>.cls-1{fill:#cccaca;}.cls-2{fill:snow;}.cls-3{fill:#ffe5d7;}.cls-4{fill:#542c1a;}.cls-5{fill:#e87d34;}.cls-6{opacity:0.16;}.cls-7{fill:#050505;}.cls-8{fill:#fcfcfc;opacity:0.1;}.cls-9{opacity:0.2;}</style></defs><title>fredo</title><g id="Layer_2" data-name="Layer 2"><g id="OBJECTS"><path class="cls-1" d="M67,0H0S-.29,105.21,33.48,101.45C67.25,105.21,67,0,67,0Z"/><path class="cls-1" d="M52.59,114.14,41.7,103.48H25.26l-10.9,10.66a1.77,1.77,0,0,0,1.24,3H51.36A1.77,1.77,0,0,0,52.59,114.14Z"/><path class="cls-2" d="M67,0H60.72s1,99.42-30,101.51a15.34,15.34,0,0,0,2.74-.05C67.25,105.21,67,0,67,0Z"/><path class="cls-3" d="M33.48,93.53C42.86,94.71,49,84.19,53,69.81H13.92C18,84.19,24.1,94.71,33.48,93.53Z"/><path class="cls-4" d="M10,50.78a163.14,163.14,0,0,0,4,19H53a163.11,163.11,0,0,0,4-19Z"/><path class="cls-5" d="M60,21.62H7c.53,8.7,1.43,19,3,29.15H57C58.55,40.67,59.45,30.32,60,21.62Z"/><g class="cls-6"><path class="cls-7" d="M12.78,0H0S-.29,105.21,33.48,101.45a14.55,14.55,0,0,0,6.39-.68C12.53,91.44,12.78,0,12.78,0Z"/></g><path class="cls-8" d="M54.84,0s3.86,83.47-19.19,98.53c0,0,10.31-44.27,4.23-98.53Z"/><g class="cls-9"><path class="cls-7" d="M47.14,108.8l-5.45-5.33H25.26l-5.33,5.21a32.69,32.69,0,0,0,13.54,3.09A33.35,33.35,0,0,0,47.14,108.8Z"/></g><ellipse class="cls-1" cx="33.48" cy="103.48" rx="13.33" ry="5.02"/><ellipse class="cls-2" cx="35.52" cy="102.02" rx="9.46" ry="3.56"/><path class="cls-2" d="M36.56,111.78l5.25,5.39h9.94a1.43,1.43,0,0,0,1-2.41l-5.65-6S40.67,111.81,36.56,111.78Z"/></g></g></svg>