<svg xmlns="http://www.w3.org/2000/svg" viewBox="0 0 68.17 144.88"><defs><style>.cls-1{fill:#cccaca;}.cls-2{fill:#d4946a;}.cls-3{fill:#704122;}.cls-4,.cls-8{fill:#fcfcfc;}.cls-5{fill:#eaab8b;}.cls-6{fill:#f2c2ad;}.cls-7{fill:#050505;opacity:0.16;}.cls-8{opacity:0.1;}.cls-9{fill:#db9a7d;}.cls-10{fill:#33261c;}.cls-11{fill:#5b4638;}</style></defs><title>glase</title><g id="Layer_2" data-name="Layer 2"><g id="OBJECTS"><polygon class="cls-1" points="34.09 35.32 0 35.32 7.91 144.88 34.09 144.88 60.26 144.88 68.17 35.32 34.09 35.32"/><polygon class="cls-2" points="34.09 35.32 5.64 35.32 13.07 133.62 34.09 133.62 55.3 133.62 62.53 35.32 34.09 35.32"/><polygon class="cls-3" points="34.09 35.32 5.64 35.32 13.07 133.62 34.09 133.62 55.3 133.62 62.53 35.32 34.09 35.32"/><polygon class="cls-4" points="68.17 35.32 60.26 144.88 54.38 144.88 62.53 35.32 68.17 35.32"/><polygon class="cls-5" points="62.53 35.32 34.09 35.32 5.64 35.32 8.6 74.42 59.68 74.06 62.53 35.32"/><polygon class="cls-6" points="62.53 35.32 34.09 35.32 5.64 35.32 6.5 46.66 61.7 46.66 62.53 35.32"/><polygon class="cls-7" points="0 35.32 7.91 144.88 20.6 144.88 12.38 35.32 0 35.32"/><polygon class="cls-8" points="58.04 35.32 49.82 144.88 41.15 144.88 38.86 35.32 58.04 35.32"/><path class="cls-6" d="M5.64,35.32s10.92-13.92,28.45-14,28.45,14,28.45,14Z"/><ellipse class="cls-9" cx="46.98" cy="27.22" rx="4.35" ry="3.82"/><path class="cls-10" d="M44.53,24.12,57.12,0,64,2.51,51.34,27.62a3.83,3.83,0,0,1-3.42,2.1h0A3.83,3.83,0,0,1,44.53,24.12Z"/><polygon class="cls-11" points="61.66 3.69 48.45 29.69 59.05 4.43 55.49 3.13 56.32 1.54 61.66 3.69"/></g></g></svg>