<svg xmlns="http://www.w3.org/2000/svg" viewBox="0 0 91.61 124.42"><defs><style>.cls-1{fill:#cccaca;}.cls-2{fill:snow;}.cls-3{fill:#482c18;}.cls-4{fill:#ffe5d7;}.cls-5{fill:#e87d34;}.cls-6{opacity:0.2;}.cls-7{fill:#050505;}.cls-8{fill:#fcfcfc;opacity:0.1;}</style></defs><title>irish</title><g id="Layer_2" data-name="Layer 2"><g id="OBJECTS"><path class="cls-1" d="M77.15,28.66H67.26V36h7.61a9.73,9.73,0,0,1,9.73,9.73v9.44a9.73,9.73,0,0,1-9.73,9.73H67.26v7.3h9.89A14.46,14.46,0,0,0,91.61,57.72V43.11A14.46,14.46,0,0,0,77.15,28.66Z"/><path class="cls-1" d="M35,7.66H0V70.2a31.5,31.5,0,0,0,31.5,31.5h7A31.5,31.5,0,0,0,70,70.2V7.66Z"/><path class="cls-2" d="M62.7,7.66V70.2a31.5,31.5,0,0,1-31.35,31.49H38.5A31.5,31.5,0,0,0,70,70.2V7.66Z"/><path class="cls-3" d="M35,7.66H6.47V65.32c0,16,11.5,29,25.68,29h5.71c14.18,0,25.68-13,25.68-29V7.66Z"/><path class="cls-3" d="M35,7.66H6.47V65.32c0,16,11.5,29,25.68,29h5.71c14.18,0,25.68-13,25.68-29V7.66Z"/><polygon class="cls-4" points="63.53 7.66 35 7.66 6.47 7.66 6.47 35.96 63.53 35.96 63.53 7.66"/><rect class="cls-5" x="6.47" y="35.96" width="57.06" height="8.63"/><path class="cls-4" d="M55.88,0H14.12A7.66,7.66,0,0,0,6.47,7.66H63.53A7.66,7.66,0,0,0,55.88,0Z"/><g class="cls-6"><path class="cls-7" d="M12.78,70.2V7.66H0V70.2a31.5,31.5,0,0,0,31.5,31.5h7c1,0,1.94-.06,2.89-.15A31.49,31.49,0,0,1,12.78,70.2Z"/></g><path class="cls-2" d="M91.61,43.11A14.46,14.46,0,0,0,77.15,28.66H67.26V36h7.61a9.73,9.73,0,0,1,9.73,9.73v9.44a9.67,9.67,0,0,1-.86,4l5.49,6.54a14.38,14.38,0,0,0,2.37-7.93Z"/><path class="cls-8" d="M56.83,7.66v58S57.75,94.37,35,100.28c0,0,8.75-10.5,8.14-34.64-.62-24.64-1.75-58-1.75-58Z"/><path class="cls-1" d="M56.59,120.27,44.26,105.72H25.67L13.35,120.27c-1.28,1.51-.39,4.14,1.4,4.14H55.19C57,124.42,57.87,121.79,56.59,120.27Z"/><g class="cls-6"><path class="cls-7" d="M50.42,113l-6.16-7.27H25.67l-6,7.11A31.86,31.86,0,0,0,35,117.05,32.41,32.41,0,0,0,50.42,113Z"/></g><ellipse class="cls-1" cx="34.97" cy="105.72" rx="15.08" ry="6.86"/><ellipse class="cls-2" cx="37.28" cy="103.73" rx="10.7" ry="4.87"/><path class="cls-2" d="M38.45,117.05l5.94,7.37H55.64c1.42,0,2.15-2.05,1.17-3.29L50.42,113S43.1,117.1,38.45,117.05Z"/></g></g></svg>