<svg xmlns="http://www.w3.org/2000/svg" viewBox="0 0 83.97 118.69"><defs><style>.cls-1{fill:#eee;}.cls-2{fill:snow;}.cls-3{fill:#cccaca;}.cls-4{fill:#d4946a;}.cls-5{fill:#ab6f47;}.cls-6{fill:#ffe5d7;}.cls-7{fill:#050505;opacity:0.16;}.cls-8{fill:#fcfcfc;opacity:0.1;}</style></defs><title>latte</title><g id="Layer_2" data-name="Layer 2"><g id="OBJECTS"><path class="cls-1" d="M64.95,33a19,19,0,1,0,19,19A19,19,0,0,0,64.95,33Zm0,31.31A12.28,12.28,0,1,1,77.23,52.05,12.28,12.28,0,0,1,64.95,64.33Z"/><path class="cls-2" d="M84,52.05A19,19,0,0,0,59.51,33.83l.92,6.81a12.27,12.27,0,0,1,13.3,20l3.67,5.78A19,19,0,0,0,84,52.05Z"/><polygon class="cls-3" points="35.91 0 0 0 16.74 106.22 35.91 106.22 55.09 106.22 71.83 0 35.91 0"/><polygon class="cls-4" points="35.91 4.49 5.81 4.49 21.24 97.87 35.91 97.87 51.07 97.87 66.01 4.49 35.91 4.49"/><polygon class="cls-5" points="66.01 4.49 35.91 7.38 5.81 4.49 11.64 39.77 59.94 39.77 66.01 4.49"/><path class="cls-1" d="M55.09,106.22H16.74L10.08,116a1.74,1.74,0,0,0,1.44,2.72h48.8A1.74,1.74,0,0,0,61.75,116Z"/><path class="cls-6" d="M66,4.49h0a203.91,203.91,0,0,0-60.2,0h0L8.27,19.35H63.06Z"/><polygon class="cls-7" points="14.61 0 29.22 106.22 16.74 106.22 0 0 14.61 0"/><polygon class="cls-8" points="62.06 0 45.92 106.59 35.91 106.22 45.92 0 62.06 0"/><polygon class="cls-2" points="71.83 0 55.09 106.22 48.98 106.59 66.01 0 71.83 0"/><path class="cls-7" d="M29.22,106.22,21.3,118.69H10.86a1.4,1.4,0,0,1-1.15-2.19l7-10.29Z"/><polygon class="cls-8" points="35.91 106.22 35.91 118.69 48.98 118.69 45.92 106.59 35.91 106.22"/><path class="cls-2" d="M49,106.6l8.23,12.1h3.28a2.16,2.16,0,0,0,1.69-3.49l-7.1-9Z"/></g></g></svg>