<svg xmlns="http://www.w3.org/2000/svg" viewBox="0 0 85.23 127.16"><defs><style>.cls-1{fill:#cccaca;}.cls-2{fill:#d4946a;}.cls-3{fill:#ffe5d7;}.cls-4{fill:#f4c0a6;}.cls-5{fill:#ab6f47;}.cls-6{fill:#bf7643;}.cls-7{fill:#050505;opacity:0.16;}.cls-8,.cls-9{fill:#fcfcfc;}.cls-8{opacity:0.1;}</style></defs><title>macchiato</title><g id="Layer_2" data-name="Layer 2"><g id="OBJECTS"><path class="cls-1" d="M75.66,45.28C66.57,40.59,55,44.92,49.82,55s-2,22,7.08,26.67,20.66.36,25.84-9.68S84.75,50,75.66,45.28Zm2.89,24.49C74.69,77.24,66.08,80.47,59.31,77S50.19,64.6,54,57.13s12.47-10.7,19.23-7.21S82.4,62.3,78.54,69.77Z"/><polygon class="cls-1" points="34.09 17.59 0 17.59 7.91 127.16 34.09 127.16 60.26 127.16 68.17 17.59 34.09 17.59"/><polygon class="cls-2" points="34.09 17.59 5.64 17.59 13.07 115.89 34.09 115.89 55.3 115.89 62.53 17.59 34.09 17.59"/><polygon class="cls-2" points="34.09 17.59 5.64 17.59 13.07 115.89 34.09 115.89 55.3 115.89 62.53 17.59 34.09 17.59"/><polygon class="cls-3" points="62.53 17.59 34.09 17.59 5.64 17.59 6.55 29.61 61.65 29.61 62.53 17.59"/><polygon class="cls-4" points="61.65 29.61 6.55 29.61 7.59 43.37 60.64 43.34 61.65 29.61"/><polygon class="cls-5" points="59.21 62.69 60.64 43.34 7.59 43.37 9.05 62.69 9.78 72.37 58.5 72.37 59.21 62.69"/><polygon class="cls-6" points="60.64 43.34 7.59 43.37 8.19 51.37 60.05 51.37 60.64 43.34"/><path class="cls-3" d="M5.64,17.59S6.91,8.16,27.91,5.11c0,0,5.78-.61,1.52-4.87,0,0,22.76-3.65,33.1,17.35Z"/><polygon class="cls-7" points="0 17.59 7.91 127.16 20.6 127.16 12.38 17.59 0 17.59"/><polygon class="cls-8" points="58.04 17.59 49.82 127.16 41.15 127.16 38.86 17.59 58.04 17.59"/><polygon class="cls-9" points="68.17 17.59 60.26 127.16 54.38 127.16 62.53 17.59 68.17 17.59"/><path class="cls-9" d="M82.74,71.95c5.18-10,2-22-7.08-26.67a17.55,17.55,0,0,0-13.85-.85l1.64,4.71a13,13,0,0,1,9.83.79C80,53.41,82.4,62.3,78.54,69.77a16.56,16.56,0,0,1-3.37,4.47l3.25,3.5A22.27,22.27,0,0,0,82.74,71.95Z"/></g></g></svg>