<svg xmlns="http://www.w3.org/2000/svg" viewBox="0 0 66.96 135.05"><defs><style>.cls-1{fill:#cccaca;}.cls-2{fill:#542c1a;}.cls-3{fill:#ab6f47;}.cls-4{fill:#d4946a;}.cls-5{fill:#ffe5d7;}.cls-6{fill:snow;}.cls-7{opacity:0.16;}.cls-8{fill:#050505;}.cls-9{fill:#fcfcfc;opacity:0.1;}.cls-10{opacity:0.2;}</style></defs><title>mocha</title><g id="Layer_2" data-name="Layer 2"><g id="OBJECTS"><path class="cls-1" d="M67,17.87H0S-.29,123.08,33.48,119.33C67.25,123.08,67,17.87,67,17.87Z"/><path class="cls-2" d="M60.72,17.87H6.24s-.24,97,27.24,93.53C61,114.86,60.72,17.87,60.72,17.87Z"/><path class="cls-1" d="M52.59,132,41.7,121.35H25.26L14.36,132a1.77,1.77,0,0,0,1.24,3H51.36A1.77,1.77,0,0,0,52.59,132Z"/><path class="cls-3" d="M17.12,97.06H49.83a98.13,98.13,0,0,0,5-16.64H12.12A98.14,98.14,0,0,0,17.12,97.06Z"/><path class="cls-4" d="M8.26,55.31a231.55,231.55,0,0,0,3.86,25.1H54.84a231.52,231.52,0,0,0,3.86-25.1Z"/><path class="cls-5" d="M60.72,17.87H6.24s0,11.46,1.05,26.37H59.67C60.75,29.34,60.72,17.87,60.72,17.87Z"/><path class="cls-4" d="M59.67,44.24H7.29c.26,3.53.58,7.26,1,11.07H58.69C59.09,51.5,59.41,47.77,59.67,44.24Z"/><path class="cls-6" d="M67,17.87H60.72s1,99.42-30,101.51a15.33,15.33,0,0,0,2.74-.05C67.25,123.08,67,17.87,67,17.87Z"/><g class="cls-7"><path class="cls-8" d="M12.78,17.87H0S-.29,123.08,33.48,119.33a14.55,14.55,0,0,0,6.39-.68C12.53,109.31,12.78,17.87,12.78,17.87Z"/></g><path class="cls-9" d="M54.84,17.87s3.86,83.47-19.19,98.53c0,0,10.31-44.27,4.23-98.53Z"/><g class="cls-10"><path class="cls-8" d="M47.14,126.68l-5.45-5.33H25.26l-5.33,5.21a32.69,32.69,0,0,0,13.54,3.09A33.35,33.35,0,0,0,47.14,126.68Z"/></g><ellipse class="cls-1" cx="33.48" cy="121.35" rx="13.33" ry="5.02"/><ellipse class="cls-6" cx="35.52" cy="119.89" rx="9.46" ry="3.56"/><path class="cls-6" d="M36.56,129.65,41.81,135h9.94a1.43,1.43,0,0,0,1-2.41l-5.65-6S40.67,129.69,36.56,129.65Z"/><path class="cls-5" d="M6.24,17.87s6-11,27.3-11,27.18,11,27.18,11Z"/><circle class="cls-5" cx="33.54" cy="6.85" r="6.85"/></g></g></svg>